<?xml version="1.0" encoding="UTF-8"?>
<!DOCTYPE svg PUBLIC "-//W3C//DTD SVG 1.1//EN" "http://www.w3.org/Graphics/SVG/1.1/DTD/svg11.dtd">
<svg xmlns="http://www.w3.org/2000/svg" version="1.1" width="500px" height="500px" style="shape-rendering:geometricPrecision; text-rendering:geometricPrecision; image-rendering:optimizeQuality; fill-rule:evenodd; clip-rule:evenodd" xmlns:xlink="http://www.w3.org/1999/xlink">
<g><path style="opacity:1" fill="#fffefe" d="M -0.5,-0.5 C 166.167,-0.5 332.833,-0.5 499.5,-0.5C 499.5,166.167 499.5,332.833 499.5,499.5C 332.833,499.5 166.167,499.5 -0.5,499.5C -0.5,332.833 -0.5,166.167 -0.5,-0.5 Z"/></g>
<g><path style="opacity:1" fill="#e17c08" d="M 300.5,90.5 C 291.556,93.9376 286.056,100.271 284,109.5C 288.516,100.447 295.016,94.4465 303.5,91.5C 321.469,96.8179 338.469,104.318 354.5,114C 364.459,120.779 370.792,129.946 373.5,141.5C 367.298,142.101 361.965,144.601 357.5,149C 353.844,153.169 350.844,157.669 348.5,162.5C 345.029,158.197 341.029,154.364 336.5,151C 326.57,144.872 316.57,139.039 306.5,133.5C 304.235,131.358 301.568,129.691 298.5,128.5C 298.321,119.064 302.655,112.23 311.5,108C 312.888,107.111 312.722,106.611 311,106.5C 302.454,110.56 296.954,117.226 294.5,126.5C 271.288,117.191 247.288,113.691 222.5,116C 220.347,116.099 218.681,116.933 217.5,118.5C 216.833,118.5 216.167,118.5 215.5,118.5C 213.94,118.519 212.44,118.852 211,119.5C 209.359,117.861 207.526,116.527 205.5,115.5C 201.951,93.5109 211.618,82.0109 234.5,81C 257.262,79.7596 279.262,82.9262 300.5,90.5 Z"/></g>
<g><path style="opacity:1" fill="#f82401" d="M 300.5,90.5 C 301.791,90.2627 302.791,90.596 303.5,91.5C 295.016,94.4465 288.516,100.447 284,109.5C 286.056,100.271 291.556,93.9376 300.5,90.5 Z"/></g>
<g><path style="opacity:1" fill="#f72901" d="M 247.5,84.5 C 248.552,84.3505 249.552,84.5172 250.5,85C 243.944,89.9406 239.777,96.4406 238,104.5C 237.542,101.442 237.876,98.4424 239,95.5C 241.284,91.3862 244.117,87.7196 247.5,84.5 Z"/></g>
<g><path style="opacity:1" fill="#f82700" d="M 260.5,92.5 C 261.239,92.369 261.906,92.5357 262.5,93C 256.474,98.8877 253.641,106.054 254,114.5C 252.517,111.298 252.183,107.964 253,104.5C 254.747,100 257.247,96.0001 260.5,92.5 Z"/></g>
<g><path style="opacity:1" fill="#fe1305" d="M 205.5,115.5 C 207.526,116.527 209.359,117.861 211,119.5C 212.44,118.852 213.94,118.519 215.5,118.5C 215.5,119.5 215.5,120.5 215.5,121.5C 214.209,121.263 213.209,121.596 212.5,122.5C 169.663,135.834 140.163,163.5 124,205.5C 123.5,198.508 123.334,191.508 123.5,184.5C 141.716,150.614 169.049,127.614 205.5,115.5 Z"/></g>
<g><path style="opacity:1" fill="#fea601" d="M 306.5,133.5 C 316.57,139.039 326.57,144.872 336.5,151C 341.029,154.364 345.029,158.197 348.5,162.5C 348.66,164.199 348.494,165.866 348,167.5C 330.664,187.668 313.164,207.668 295.5,227.5C 289.171,227.9 282.838,228.233 276.5,228.5C 277.167,226.181 277.334,223.847 277,221.5C 275.589,223.65 274.755,225.984 274.5,228.5C 273.167,228.5 271.833,228.5 270.5,228.5C 271.16,215.166 270.493,215.166 268.5,228.5C 264.029,229.089 260.029,228.423 256.5,226.5C 258.636,224.188 260.636,221.688 262.5,219C 260.789,216.481 258.455,214.981 255.5,214.5C 251.826,218.507 249.159,223.173 247.5,228.5C 244.833,228.5 242.167,228.5 239.5,228.5C 239.814,225.053 240.648,221.72 242,218.5C 244.934,213.966 247.267,209.3 249,204.5C 242.752,211.33 238.919,219.33 237.5,228.5C 235.833,228.5 234.167,228.5 232.5,228.5C 231.17,220.193 230.337,211.86 230,203.5C 235,195.833 240,188.167 245,180.5C 249.008,164.843 243.174,158.676 227.5,162C 218.91,165.455 211.577,170.622 205.5,177.5C 208.165,161.508 210.832,145.508 213.5,129.5C 214.152,128.551 214.486,127.385 214.5,126C 214.392,124.319 213.725,123.152 212.5,122.5C 213.209,121.596 214.209,121.263 215.5,121.5C 215.5,120.5 215.5,119.5 215.5,118.5C 216.167,118.5 216.833,118.5 217.5,118.5C 248.522,115.17 278.189,120.17 306.5,133.5 Z"/></g>
<g><path style="opacity:1" fill="#f92100" d="M 348.5,117.5 C 349.552,117.351 350.552,117.517 351.5,118C 342.371,124.421 337.538,133.254 337,144.5C 335.977,143.4 335.477,142.067 335.5,140.5C 336.863,131.141 341.196,123.475 348.5,117.5 Z"/></g>
<g><path style="opacity:1" fill="#e9a628" d="M 212.5,122.5 C 213.725,123.152 214.392,124.319 214.5,126C 214.486,127.385 214.152,128.551 213.5,129.5C 213.631,128.624 213.298,127.957 212.5,127.5C 169.151,142.683 140.485,172.183 126.5,216C 126.905,216.945 127.572,217.612 128.5,218C 150.697,221.922 173.031,224.755 195.5,226.5C 197.863,228.002 200.03,227.668 202,225.5C 204.121,227.457 206.621,227.957 209.5,227C 208.377,225.956 207.044,225.29 205.5,225C 206,224.5 206.5,224 207,223.5C 208.992,224.665 210.825,225.998 212.5,227.5C 213.964,228.16 215.631,228.493 217.5,228.5C 219.64,228.444 221.306,227.777 222.5,226.5C 225.488,228.273 228.821,228.94 232.5,228.5C 234.167,228.5 235.833,228.5 237.5,228.5C 238.167,228.5 238.833,228.5 239.5,228.5C 242.167,228.5 244.833,228.5 247.5,228.5C 248.167,228.5 248.833,228.5 249.5,228.5C 252.325,228.838 254.492,227.838 256,225.5C 256.399,225.728 256.565,226.062 256.5,226.5C 260.029,228.423 264.029,229.089 268.5,228.5C 269.167,228.5 269.833,228.5 270.5,228.5C 271.833,228.5 273.167,228.5 274.5,228.5C 275.167,228.5 275.833,228.5 276.5,228.5C 282.838,228.233 289.171,227.9 295.5,227.5C 297.292,227.634 298.958,227.301 300.5,226.5C 325.063,225.237 349.396,222.237 373.5,217.5C 369.365,201.062 362.365,186.062 352.5,172.5C 354.455,171.677 356.455,171.51 358.5,172C 365.432,181.695 370.932,192.195 375,203.5C 375.499,207.486 375.666,211.486 375.5,215.5C 379.727,216.849 383.727,216.516 387.5,214.5C 400.154,212.374 412.487,209.374 424.5,205.5C 425.5,205.5 426.5,205.5 427.5,205.5C 429.176,206.183 429.843,207.517 429.5,209.5C 309.907,241.096 190.24,241.429 70.5,210.5C 70.5,210.167 70.5,209.833 70.5,209.5C 70.2155,207.585 70.5489,205.919 71.5,204.5C 84.7928,208.906 98.4595,212.239 112.5,214.5C 115.473,216.325 118.639,216.658 122,215.5C 122.5,204.172 122.667,192.838 122.5,181.5C 104.935,182.797 89.2685,188.797 75.5,199.5C 74.7109,199.217 74.0442,198.717 73.5,198C 87.9856,185.889 104.652,178.723 123.5,176.5C 123.5,179.167 123.5,181.833 123.5,184.5C 123.334,191.508 123.5,198.508 124,205.5C 140.163,163.5 169.663,135.834 212.5,122.5 Z"/></g>
<g><path style="opacity:1" fill="#e77103" d="M 231.5,122.5 C 237.113,121.079 239.28,123.079 238,128.5C 235.684,129.522 235.184,131.022 236.5,133C 235.135,134.682 233.635,134.849 232,133.5C 231.508,132.451 231.674,131.451 232.5,130.5C 227.61,128.296 227.277,125.629 231.5,122.5 Z"/></g>
<g><path style="opacity:1" fill="#fa2c00" d="M 306.5,133.5 C 278.189,120.17 248.522,115.17 217.5,118.5C 218.681,116.933 220.347,116.099 222.5,116C 247.288,113.691 271.288,117.191 294.5,126.5C 296.954,117.226 302.454,110.56 311,106.5C 312.722,106.611 312.888,107.111 311.5,108C 302.655,112.23 298.321,119.064 298.5,128.5C 301.568,129.691 304.235,131.358 306.5,133.5 Z"/></g>
<g><path style="opacity:1" fill="#e27c05" d="M 267.5,133.5 C 268.873,133.657 270.207,133.49 271.5,133C 269.422,131.923 267.422,130.757 265.5,129.5C 265.956,126.714 267.623,125.381 270.5,125.5C 277.373,125.69 280.039,129.023 278.5,135.5C 276.516,136.706 274.516,136.706 272.5,135.5C 271.232,137.304 270.565,139.304 270.5,141.5C 267.944,141.868 265.944,141.034 264.5,139C 265.741,137.269 266.741,135.436 267.5,133.5 Z"/></g>
<g><path style="opacity:1" fill="#fefefd" d="M 213.5,129.5 C 210.832,145.508 208.165,161.508 205.5,177.5C 201.203,193.613 197.869,209.946 195.5,226.5C 173.031,224.755 150.697,221.922 128.5,218C 127.572,217.612 126.905,216.945 126.5,216C 140.485,172.183 169.151,142.683 212.5,127.5C 213.298,127.957 213.631,128.624 213.5,129.5 Z"/></g>
<g><path style="opacity:1" fill="#ff3b00" d="M 220.5,125.5 C 221.097,125.735 221.43,126.235 221.5,127C 220.517,129.93 219.851,132.93 219.5,136C 220.595,140.858 221.428,145.691 222,150.5C 216.731,142.449 216.231,134.116 220.5,125.5 Z"/></g>
<g><path style="opacity:1" fill="#f92b00" d="M 265.5,129.5 C 267.422,130.757 269.422,131.923 271.5,133C 270.207,133.49 268.873,133.657 267.5,133.5C 265.896,132.713 265.229,131.38 265.5,129.5 Z"/></g>
<g><path style="opacity:1" fill="#ff2b00" d="M 241.5,129.5 C 250.023,129.89 256.189,134.224 260,142.5C 260.619,151.696 259.952,151.696 258,142.5C 254.135,136.139 248.635,131.806 241.5,129.5 Z"/></g>
<g><path style="opacity:1" fill="#ff3600" d="M 254.5,129.5 C 254.897,128.475 255.563,128.308 256.5,129C 260.763,133.352 262.93,138.519 263,144.5C 261.076,140.983 259.409,137.316 258,133.5C 257.051,131.907 255.885,130.574 254.5,129.5 Z"/></g>
<g><path style="opacity:1" fill="#ff372f" d="M 287.5,136.5 C 289.655,136.372 291.655,136.872 293.5,138C 298.214,143.926 303.047,149.759 308,155.5C 311.57,169.876 310.236,183.876 304,197.5C 300.557,205.279 294.89,210.612 287,213.5C 282.797,212.966 280.13,210.632 279,206.5C 279.771,194.527 280.104,182.527 280,170.5C 276.826,164.659 274.659,158.492 273.5,152C 273.393,147.217 275.393,143.55 279.5,141C 282.099,139.205 284.766,137.705 287.5,136.5 Z"/></g>
<g><path style="opacity:1" fill="#fff6ef" d="M 245.5,152.5 C 244.365,148.364 242.365,144.697 239.5,141.5C 240.427,139.524 241.76,139.191 243.5,140.5C 245.698,143.533 247.698,146.7 249.5,150C 248.529,151.481 247.196,152.315 245.5,152.5 Z"/></g>
<g><path style="opacity:1" fill="#fe0f03" d="M 373.5,141.5 C 375.427,144.137 375.927,147.137 375,150.5C 373.623,156.925 370.456,162.258 365.5,166.5C 368.585,171 371.418,175.667 374,180.5C 374.671,181.252 375.504,181.586 376.5,181.5C 393.838,183.343 409.504,189.343 423.5,199.5C 424.29,200.794 425.29,201.961 426.5,203C 425.756,204.039 424.756,204.539 423.5,204.5C 412.529,207.061 401.529,209.561 390.5,212C 388.881,212.236 387.881,213.069 387.5,214.5C 383.727,216.516 379.727,216.849 375.5,215.5C 375.666,211.486 375.499,207.486 375,203.5C 370.932,192.195 365.432,181.695 358.5,172C 356.455,171.51 354.455,171.677 352.5,172.5C 351.883,172.389 351.383,172.056 351,171.5C 333.961,189.703 317.127,208.037 300.5,226.5C 298.958,227.301 297.292,227.634 295.5,227.5C 313.164,207.668 330.664,187.668 348,167.5C 348.494,165.866 348.66,164.199 348.5,162.5C 350.844,157.669 353.844,153.169 357.5,149C 361.965,144.601 367.298,142.101 373.5,141.5 Z"/></g>
<g><path style="opacity:1" fill="#ff3900" d="M 224.5,131.5 C 225.653,136.703 226.486,142.036 227,147.5C 223.711,142.517 222.878,137.184 224.5,131.5 Z"/></g>
<g><path style="opacity:1" fill="#ff351d" d="M 239.5,141.5 C 242.365,144.697 244.365,148.364 245.5,152.5C 243.516,150.072 241.349,147.072 239,143.5C 238.308,142.563 238.475,141.897 239.5,141.5 Z"/></g>
<g><path style="opacity:1" fill="#e8a627" d="M 102.5,174.5 C 78.11,168.145 54.11,160.812 30.5,152.5C 29.9478,150.669 29.9478,149.003 30.5,147.5C 56.8339,156.778 83.5006,164.945 110.5,172C 107.92,173.144 105.253,173.978 102.5,174.5 Z"/></g>
<g><path style="opacity:1" fill="#e9a92f" d="M 469.5,152.5 C 445.015,160.454 420.349,167.788 395.5,174.5C 393.37,173.968 391.37,173.135 389.5,172C 416.925,163.981 444.258,155.981 471.5,148C 470.418,149.33 469.751,150.83 469.5,152.5 Z"/></g>
<g><path style="opacity:1" fill="#ff9708" d="M 285.5,144.5 C 286.675,144.281 287.675,144.614 288.5,145.5C 285.067,146.6 283.067,148.933 282.5,152.5C 284.62,157.045 286.786,161.378 289,165.5C 286.667,162.5 284.333,159.5 282,156.5C 280.745,151.738 281.912,147.738 285.5,144.5 Z"/></g>
<g><path style="opacity:1" fill="#fe0b03" d="M 30.5,152.5 C 54.11,160.812 78.11,168.145 102.5,174.5C 104.562,175.776 106.896,176.61 109.5,177C 91.7881,180.517 76.7881,188.683 64.5,201.5C 63.7784,201.918 63.2784,202.584 63,203.5C 62.5017,206.817 62.335,210.15 62.5,213.5C 62.5,215.167 62.5,216.833 62.5,218.5C 43.1405,214.101 24.1405,208.601 5.5,202C 7.85434,201.153 10.1877,200.32 12.5,199.5C 21.8046,195.841 31.1379,192.175 40.5,188.5C 41.2916,187.3 41.2916,185.967 40.5,184.5C 36.3111,173.954 31.9778,163.454 27.5,153C 28.448,152.517 29.448,152.351 30.5,152.5 Z"/></g>
<g><path style="opacity:1" fill="#fe0c03" d="M 469.5,152.5 C 470.239,152.369 470.906,152.536 471.5,153C 466.677,163.305 462.343,173.805 458.5,184.5C 457.374,185.858 457.374,187.192 458.5,188.5C 468.112,192.37 477.779,196.037 487.5,199.5C 489.277,200.6 491.277,201.434 493.5,202C 474.417,208.417 455.084,213.917 435.5,218.5C 435.666,213.156 435.499,207.823 435,202.5C 422.236,189.198 406.736,180.698 388.5,177C 391.004,176.302 393.337,175.469 395.5,174.5C 420.349,167.788 445.015,160.454 469.5,152.5 Z"/></g>
<g><path style="opacity:1" fill="#ff3830" d="M 232.5,228.5 C 228.821,228.94 225.488,228.273 222.5,226.5C 220.933,222.582 220.599,222.582 221.5,226.5C 218.572,227.484 215.572,227.817 212.5,227.5C 210.825,225.998 208.992,224.665 207,223.5C 206.5,224 206,224.5 205.5,225C 207.044,225.29 208.377,225.956 209.5,227C 206.621,227.957 204.121,227.457 202,225.5C 200.03,227.668 197.863,228.002 195.5,226.5C 197.869,209.946 201.203,193.613 205.5,177.5C 211.577,170.622 218.91,165.455 227.5,162C 243.174,158.676 249.008,164.843 245,180.5C 240,188.167 235,195.833 230,203.5C 230.337,211.86 231.17,220.193 232.5,228.5 Z"/></g>
<g><path style="opacity:1" fill="#ff9608" d="M 288.5,151.5 C 291.803,155.651 294.97,159.985 298,164.5C 298.667,166.167 298.667,167.833 298,169.5C 296.554,164.393 293.888,160.06 290,156.5C 288.991,154.975 288.491,153.308 288.5,151.5 Z"/></g>
<g><path style="opacity:1" fill="#ff9a07" d="M 229.5,164.5 C 239.834,163.003 243.667,167.336 241,177.5C 240.751,178.624 240.251,179.624 239.5,180.5C 239.167,180.333 238.833,180.167 238.5,180C 240.96,175.617 240.96,171.284 238.5,167C 236.966,166.077 235.299,165.577 233.5,165.5C 230.037,166.275 226.703,167.108 223.5,168C 225.432,166.541 227.432,165.375 229.5,164.5 Z"/></g>
<g><path style="opacity:1" fill="#ff900c" d="M 295.5,151.5 C 304.552,160.37 305.885,170.37 299.5,181.5C 299.167,181.333 298.833,181.167 298.5,181C 303.271,170.509 302.271,160.676 295.5,151.5 Z"/></g>
<g><path style="opacity:1" fill="#fffaf6" d="M 264.5,175.5 C 260.487,179.525 259.153,184.192 260.5,189.5C 260.5,190.5 260.5,191.5 260.5,192.5C 257.728,192.78 255.228,192.113 253,190.5C 251.473,183.56 252.973,177.393 257.5,172C 260.5,171.333 263.5,171.333 266.5,172C 265.177,172.816 264.511,173.983 264.5,175.5 Z"/></g>
<g><path style="opacity:1" fill="#ff910d" d="M 225.5,171.5 C 227.527,171.338 229.527,171.505 231.5,172C 232.804,172.804 233.471,173.971 233.5,175.5C 232.677,179.477 231.177,183.143 229,186.5C 230.28,182.358 231.113,178.025 231.5,173.5C 227.869,173.16 224.536,173.994 221.5,176C 216.319,181.348 210.985,186.515 205.5,191.5C 205.167,191.333 204.833,191.167 204.5,191C 210.773,183.512 217.773,177.012 225.5,171.5 Z"/></g>
<g><path style="opacity:1" fill="#fffdfc" d="M 352.5,172.5 C 362.365,186.062 369.365,201.062 373.5,217.5C 349.396,222.237 325.063,225.237 300.5,226.5C 317.127,208.037 333.961,189.703 351,171.5C 351.383,172.056 351.883,172.389 352.5,172.5 Z"/></g>
<g><path style="opacity:1" fill="#ff3000" d="M 326.5,167.5 C 327.958,172.221 327.458,176.887 325,181.5C 324.842,176.785 325.342,172.119 326.5,167.5 Z"/></g>
<g><path style="opacity:1" fill="#ff3700" d="M 317.5,151.5 C 325.603,163.863 325.436,176.196 317,188.5C 319.073,182.585 320.573,176.418 321.5,170C 320.866,163.663 319.533,157.496 317.5,151.5 Z"/></g>
<g><path style="opacity:1" fill="#e9a72a" d="M 423.5,199.5 C 409.504,189.343 393.838,183.343 376.5,181.5C 376.215,179.712 376.548,178.045 377.5,176.5C 392.501,179 406.501,184.166 419.5,192C 422.02,193.763 424.353,195.763 426.5,198C 425.756,199.039 424.756,199.539 423.5,199.5 Z"/></g>
<g><path style="opacity:1" fill="#ff3d29" d="M 264.5,175.5 C 262.923,180.215 261.59,184.882 260.5,189.5C 259.153,184.192 260.487,179.525 264.5,175.5 Z"/></g>
<g><path style="opacity:1" fill="#fe0c03" d="M 112.5,214.5 C 99.5154,210.297 86.182,206.964 72.5,204.5C 72.3893,203.883 72.056,203.383 71.5,203C 72.7305,201.595 74.0639,200.429 75.5,199.5C 89.2685,188.797 104.935,182.797 122.5,181.5C 122.667,192.838 122.5,204.172 122,215.5C 118.639,216.658 115.473,216.325 112.5,214.5 Z"/></g>
<g><path style="opacity:1" fill="#ff9708" d="M 287.5,167.5 C 290.078,171.183 291.412,175.35 291.5,180C 290.424,185.904 288.924,191.737 287,197.5C 287.126,191.49 288.293,185.657 290.5,180C 289.598,175.798 288.598,171.632 287.5,167.5 Z"/></g>
<g><path style="opacity:1" fill="#ff8d0d" d="M 295.5,181.5 C 297.918,184.464 298.085,187.798 296,191.5C 295.502,188.183 295.335,184.85 295.5,181.5 Z"/></g>
<g><path style="opacity:1" fill="#e8a728" d="M 458.5,184.5 C 470.245,188.36 481.912,192.527 493.5,197C 491.277,197.566 489.277,198.4 487.5,199.5C 477.779,196.037 468.112,192.37 458.5,188.5C 457.374,187.192 457.374,185.858 458.5,184.5 Z"/></g>
<g><path style="opacity:1" fill="#e9a92e" d="M 40.5,184.5 C 41.2916,185.967 41.2916,187.3 40.5,188.5C 31.1379,192.175 21.8046,195.841 12.5,199.5C 10.8415,198.819 9.17486,197.985 7.5,197C 18.4069,192.532 29.4069,188.365 40.5,184.5 Z"/></g>
<g><path style="opacity:1" fill="#e27d05" d="M 271.5,201.5 C 268.463,199.04 267.963,199.707 270,203.5C 270.838,204.999 271.671,205.332 272.5,204.5C 273.656,209.821 271.489,211.488 266,209.5C 265.809,207.292 265.309,205.292 264.5,203.5C 266.113,202.162 266.613,200.495 266,198.5C 264.27,200.402 262.437,202.069 260.5,203.5C 257.756,202.928 256.923,201.262 258,198.5C 262.39,190.92 267.723,189.92 274,195.5C 274.966,198.34 274.133,200.34 271.5,201.5 Z"/></g>
<g><path style="opacity:1" fill="#ff900b" d="M 284.5,182.5 C 285.328,188.319 285.828,194.319 286,200.5C 286.51,203.005 288.01,204.505 290.5,205C 286.405,205.751 284.238,203.918 284,199.5C 283.313,193.796 283.479,188.13 284.5,182.5 Z"/></g>
<g><path style="opacity:1" fill="#ff9209" d="M 213.5,192.5 C 219.237,193.307 220.737,196.307 218,201.5C 211.492,206.747 211.159,206.414 217,200.5C 217.495,198.527 217.662,196.527 217.5,194.5C 215.533,194.261 213.699,194.594 212,195.5C 211.761,194.212 212.261,193.212 213.5,192.5 Z"/></g>
<g><path style="opacity:1" fill="#ff9509" d="M 208.5,193.5 C 209.043,193.56 209.376,193.893 209.5,194.5C 207.473,197.221 205.973,200.221 205,203.5C 204.396,199.585 205.563,196.251 208.5,193.5 Z"/></g>
<g><path style="opacity:1" fill="#f83000" d="M 271.5,201.5 C 272.11,202.391 272.443,203.391 272.5,204.5C 271.671,205.332 270.838,204.999 270,203.5C 267.963,199.707 268.463,199.04 271.5,201.5 Z"/></g>
<g><path style="opacity:1" fill="#f92f00" d="M 264.5,203.5 C 263.039,204.686 261.705,204.686 260.5,203.5C 262.437,202.069 264.27,200.402 266,198.5C 266.613,200.495 266.113,202.162 264.5,203.5 Z"/></g>
<g><path style="opacity:1" fill="#ffe1d8" d="M 423.5,204.5 C 423.5,205.167 423.833,205.5 424.5,205.5C 412.487,209.374 400.154,212.374 387.5,214.5C 387.881,213.069 388.881,212.236 390.5,212C 401.529,209.561 412.529,207.061 423.5,204.5 Z"/></g>
<g><path style="opacity:1" fill="#f1c26e" d="M 64.5,201.5 C 65.0894,205.971 64.4228,209.971 62.5,213.5C 62.335,210.15 62.5017,206.817 63,203.5C 63.2784,202.584 63.7784,201.918 64.5,201.5 Z"/></g>
<g><path style="opacity:1" fill="#fe0e05" d="M 429.5,209.5 C 429.179,215.026 429.512,220.36 430.5,225.5C 430.363,233.92 431.03,242.253 432.5,250.5C 433.404,258.686 435.07,266.686 437.5,274.5C 437.678,275.695 438.011,276.862 438.5,278C 438.095,278.945 437.428,279.612 436.5,280C 419.81,284.339 403.143,288.672 386.5,293C 362.244,355.477 316.577,388.643 249.5,392.5C 230.696,392.631 212.696,388.964 195.5,381.5C 196.299,378.57 196.632,375.57 196.5,372.5C 242.477,390.122 286.143,385.622 327.5,359C 349.642,342.882 365.642,322.049 375.5,296.5C 373.484,295.306 371.484,295.306 369.5,296.5C 321.227,305.009 272.56,309.009 223.5,308.5C 221.146,311.521 218.479,314.188 215.5,316.5C 215.5,313.5 215.5,310.5 215.5,307.5C 213.08,307.708 210.747,307.374 208.5,306.5C 206.685,311.463 204.352,316.13 201.5,320.5C 200.488,321.872 199.488,323.205 198.5,324.5C 197.957,324.44 197.624,324.107 197.5,323.5C 201.141,318.222 203.807,312.556 205.5,306.5C 197.794,306.245 190.128,305.578 182.5,304.5C 165.349,302.574 148.349,299.908 131.5,296.5C 129.533,296.739 127.699,296.406 126,295.5C 134.743,322.948 151.243,344.614 175.5,360.5C 176.808,364.4 177.808,368.4 178.5,372.5C 147.486,354.153 126.486,327.82 115.5,293.5C 97.1015,289.692 78.9348,285.025 61,279.5C 62.171,271.136 63.8376,262.803 66,254.5C 67.3622,245.545 68.1956,236.545 68.5,227.5C 69.1667,221.833 69.8333,216.167 70.5,210.5C 190.24,241.429 309.907,241.096 429.5,209.5 Z"/></g>
<g><path style="opacity:1" fill="#fee6d5" d="M 71.5,204.5 C 71.8333,204.5 72.1667,204.5 72.5,204.5C 86.182,206.964 99.5154,210.297 112.5,214.5C 98.4595,212.239 84.7928,208.906 71.5,204.5 Z"/></g>
<g><path style="opacity:1" fill="#ff7675" d="M 70.5,209.5 C 70.5,209.833 70.5,210.167 70.5,210.5C 69.8333,216.167 69.1667,221.833 68.5,227.5C 67.88,221.074 68.5467,215.074 70.5,209.5 Z"/></g>
<g><path style="opacity:1" fill="#fff9f6" d="M 255.5,214.5 C 258.455,214.981 260.789,216.481 262.5,219C 260.636,221.688 258.636,224.188 256.5,226.5C 256.565,226.062 256.399,225.728 256,225.5C 254.492,227.838 252.325,228.838 249.5,228.5C 251.5,223.833 253.5,219.167 255.5,214.5 Z"/></g>
<g><path style="opacity:1" fill="#f8d2aa" d="M 427.5,205.5 C 428.209,204.596 429.209,204.263 430.5,204.5C 430.5,211.5 430.5,218.5 430.5,225.5C 429.512,220.36 429.179,215.026 429.5,209.5C 429.843,207.517 429.176,206.183 427.5,205.5 Z"/></g>
<g><path style="opacity:1" fill="#ff9a07" d="M 222.5,207.5 C 222.494,217.638 217.494,221.138 207.5,218C 215.668,218.995 220.668,215.495 222.5,207.5 Z"/></g>
<g><path style="opacity:1" fill="#ff2c00" d="M 239.5,228.5 C 238.833,228.5 238.167,228.5 237.5,228.5C 238.919,219.33 242.752,211.33 249,204.5C 247.267,209.3 244.934,213.966 242,218.5C 240.648,221.72 239.814,225.053 239.5,228.5 Z"/></g>
<g><path style="opacity:1" fill="#ff3922" d="M 255.5,214.5 C 253.5,219.167 251.5,223.833 249.5,228.5C 248.833,228.5 248.167,228.5 247.5,228.5C 249.159,223.173 251.826,218.507 255.5,214.5 Z"/></g>
<g><path style="opacity:1" fill="#fe3900" d="M 276.5,228.5 C 275.833,228.5 275.167,228.5 274.5,228.5C 274.755,225.984 275.589,223.65 277,221.5C 277.334,223.847 277.167,226.181 276.5,228.5 Z"/></g>
<g><path style="opacity:1" fill="#ff3d00" d="M 270.5,228.5 C 269.833,228.5 269.167,228.5 268.5,228.5C 270.493,215.166 271.16,215.166 270.5,228.5 Z"/></g>
<g><path style="opacity:1" fill="#f77124" d="M 222.5,226.5 C 221.306,227.777 219.64,228.444 217.5,228.5C 215.631,228.493 213.964,228.16 212.5,227.5C 215.572,227.817 218.572,227.484 221.5,226.5C 220.599,222.582 220.933,222.582 222.5,226.5 Z"/></g>
<g><path style="opacity:1" fill="#f7ede0" d="M 96.5,235.5 C 112.038,234.203 118.871,241.203 117,256.5C 112.503,269.776 104.003,273.276 91.5,267C 85.4626,260.867 83.9626,253.7 87,245.5C 89.359,241.31 92.5257,237.977 96.5,235.5 Z"/></g>
<g><path style="opacity:1" fill="#f8e5d8" d="M 203.5,237.5 C 207.639,236.903 210.639,238.403 212.5,242C 211.214,244.946 208.881,246.112 205.5,245.5C 205.785,247.288 205.452,248.955 204.5,250.5C 203.508,246.217 203.174,241.884 203.5,237.5 Z"/></g>
<g><path style="opacity:1" fill="#f9dccf" d="M 289.5,238.5 C 290.822,238.33 291.989,238.663 293,239.5C 294.706,243.079 296.539,246.579 298.5,250C 296.243,250.112 294.076,249.612 292,248.5C 290.145,249.244 288.479,250.244 287,251.5C 286.5,251.167 286,250.833 285.5,250.5C 287.142,246.595 288.476,242.595 289.5,238.5 Z"/></g>
<g><path style="opacity:1" fill="#f9e1d3" d="M 216.5,239.5 C 218.423,243.029 219.089,247.029 218.5,251.5C 217.5,251.5 216.5,251.5 215.5,251.5C 215.395,247.452 215.728,243.452 216.5,239.5 Z"/></g>
<g><path style="opacity:1" fill="#f8e3d6" d="M 279.5,239.5 C 280.5,239.5 281.5,239.5 282.5,239.5C 282.5,243.5 282.5,247.5 282.5,251.5C 281.5,251.5 280.5,251.5 279.5,251.5C 279.5,247.5 279.5,243.5 279.5,239.5 Z"/></g>
<g><path style="opacity:1" fill="#ff150b" d="M 99.5,239.5 C 106.568,239.401 110.235,242.901 110.5,250C 109.601,254.363 108.101,258.529 106,262.5C 102.333,266.5 98.6667,266.5 95,262.5C 92.0639,253.931 93.5639,246.265 99.5,239.5 Z"/></g>
<g><path style="opacity:1" fill="#f9dccf" d="M 232.5,249.5 C 231.486,250.765 229.986,251.431 228,251.5C 226.293,251.492 224.793,251.158 223.5,250.5C 225.032,247.943 226.699,245.443 228.5,243C 226.866,242.506 225.199,242.34 223.5,242.5C 223.5,241.5 223.5,240.5 223.5,239.5C 226.898,239.18 230.232,239.513 233.5,240.5C 231.694,243.472 229.694,246.305 227.5,249C 229.134,249.494 230.801,249.66 232.5,249.5 Z"/></g>
<g><path style="opacity:1" fill="#f7e9dc" d="M 237.5,240.5 C 240.85,240.335 244.183,240.502 247.5,241C 245.5,244 243.5,247 241.5,250C 243.577,250.192 245.577,250.692 247.5,251.5C 244.167,252.833 240.833,252.833 237.5,251.5C 239.167,248.833 240.833,246.167 242.5,243.5C 240.345,242.999 238.678,241.999 237.5,240.5 Z"/></g>
<g><path style="opacity:1" fill="#f7e8db" d="M 254.5,240.5 C 255.833,240.5 257.167,240.5 258.5,240.5C 259.534,244.243 260.868,247.91 262.5,251.5C 261.675,252.386 260.675,252.719 259.5,252.5C 259.5,251.5 259.5,250.5 259.5,249.5C 256.313,248.96 253.813,249.96 252,252.5C 251.5,252.167 251,251.833 250.5,251.5C 252.234,247.963 253.568,244.296 254.5,240.5 Z"/></g>
<g><path style="opacity:1" fill="#fadacd" d="M 265.5,239.5 C 268.685,239.02 271.519,239.686 274,241.5C 274.825,243.701 274.325,245.534 272.5,247C 273.743,248.154 274.743,249.488 275.5,251C 273.097,251.63 271.263,250.797 270,248.5C 269.51,249.793 269.343,251.127 269.5,252.5C 268.5,252.5 267.5,252.5 266.5,252.5C 266.533,248.131 266.2,243.798 265.5,239.5 Z"/></g>
<g><path style="opacity:1" fill="#ff2a1b" d="M 206.5,240.5 C 207.5,240.5 208.5,240.5 209.5,240.5C 209.5,241.5 209.5,242.5 209.5,243.5C 208.5,243.5 207.5,243.5 206.5,243.5C 206.5,242.5 206.5,241.5 206.5,240.5 Z"/></g>
<g><path style="opacity:1" fill="#f7ecdf" d="M 402.5,242.5 C 405.187,242.336 407.854,242.503 410.5,243C 411.576,244.726 411.743,246.559 411,248.5C 410.439,249.022 409.772,249.355 409,249.5C 407.013,247.372 404.513,246.372 401.5,246.5C 401.286,248.144 401.62,249.644 402.5,251C 406.211,251.844 409.877,252.844 413.5,254C 417.675,258.306 417.342,262.306 412.5,266C 408.414,268.053 404.08,268.887 399.5,268.5C 399.192,266.076 399.526,263.743 400.5,261.5C 403.612,263.184 406.946,263.85 410.5,263.5C 410.67,262.178 410.337,261.011 409.5,260C 404.672,258.842 400.172,257.008 396,254.5C 395.333,252.167 395.333,249.833 396,247.5C 397.965,245.45 400.132,243.783 402.5,242.5 Z"/></g>
<g><path style="opacity:1" fill="#fe3f32" d="M 268.5,241.5 C 271.861,242.203 272.194,243.537 269.5,245.5C 268.571,244.311 268.238,242.978 268.5,241.5 Z"/></g>
<g><path style="opacity:1" fill="#fe2920" d="M 290.5,243.5 C 292.337,243.639 292.67,244.306 291.5,245.5C 290.702,245.043 290.369,244.376 290.5,243.5 Z"/></g>
<g><path style="opacity:1" fill="#ff4739" d="M 255.5,244.5 C 257.465,244.948 257.798,245.948 256.5,247.5C 255.614,246.675 255.281,245.675 255.5,244.5 Z"/></g>
<g><path style="opacity:1" fill="#f7ebdf" d="M 343.5,244.5 C 345.903,244.393 347.736,245.393 349,247.5C 349.622,251.612 350.622,255.612 352,259.5C 356.077,253.88 360.744,253.213 366,257.5C 367.128,262.139 368.128,266.805 369,271.5C 370.456,272.92 371.956,274.253 373.5,275.5C 369.186,277.236 364.853,277.903 360.5,277.5C 360.977,276.522 361.643,275.689 362.5,275C 361.296,271.284 360.462,267.45 360,263.5C 358.64,260.449 356.473,259.782 353.5,261.5C 352.751,265.803 352.918,270.136 354,274.5C 354.71,275.973 355.876,276.64 357.5,276.5C 357.5,277.5 357.5,278.5 357.5,279.5C 353.797,279.907 350.13,280.574 346.5,281.5C 345.833,281.167 345.167,280.833 344.5,280.5C 346.272,279.73 347.272,278.397 347.5,276.5C 345.574,267.871 343.907,259.204 342.5,250.5C 340.335,250.884 338.668,250.217 337.5,248.5C 339.565,247.143 341.565,245.81 343.5,244.5 Z"/></g>
<g><path style="opacity:1" fill="#f8e6da" d="M 176.5,249.5 C 180.719,249.528 184.219,251.195 187,254.5C 188.737,251.467 190.903,250.967 193.5,253C 191.644,255.69 189.311,257.856 186.5,259.5C 183.809,257.797 181.143,256.13 178.5,254.5C 176.675,255.651 174.675,256.318 172.5,256.5C 172.961,253.697 174.295,251.363 176.5,249.5 Z"/></g>
<g><path style="opacity:1" fill="#f7ecdf" d="M 380.5,248.5 C 388,247.303 392.167,250.303 393,257.5C 392.167,258.333 391.333,259.167 390.5,260C 387.123,260.452 383.789,261.118 380.5,262C 380.043,262.414 379.709,262.914 379.5,263.5C 381.5,267.997 384.834,269.497 389.5,268C 391.055,266.711 392.721,266.044 394.5,266C 394.833,266.333 395.167,266.667 395.5,267C 388.862,275.08 381.695,275.58 374,268.5C 370.406,259.788 372.573,253.121 380.5,248.5 Z"/></g>
<g><path style="opacity:1" fill="#f7ebde" d="M 119.5,250.5 C 122.518,250.335 125.518,250.502 128.5,251C 129.46,252.419 130.293,253.919 131,255.5C 136.852,251.973 141.186,253.307 144,259.5C 144.476,273.192 137.976,278.858 124.5,276.5C 124.741,280.135 125.575,283.468 127,286.5C 122.355,285.713 117.855,284.38 113.5,282.5C 114.347,281.155 115.513,280.155 117,279.5C 119.037,271.72 120.871,263.887 122.5,256C 120.888,254.518 119.888,252.685 119.5,250.5 Z"/></g>
<g><path style="opacity:1" fill="#fb8178" d="M 232.5,249.5 C 233.404,250.209 233.737,251.209 233.5,252.5C 229.774,252.823 226.107,252.489 222.5,251.5C 222.624,250.893 222.957,250.56 223.5,250.5C 224.793,251.158 226.293,251.492 228,251.5C 229.986,251.431 231.486,250.765 232.5,249.5 Z"/></g>
<g><path style="opacity:1" fill="#ff2a1d" d="M 380.5,252.5 C 383.084,252.569 385.084,253.735 386.5,256C 384.138,257.731 381.471,258.565 378.5,258.5C 378.604,256.297 379.27,254.297 380.5,252.5 Z"/></g>
<g><path style="opacity:1" fill="#f7ecdf" d="M 153.5,257.5 C 159.624,256.231 164.291,258.231 167.5,263.5C 166.451,265.112 164.951,266.112 163,266.5C 160.702,265.039 158.535,263.372 156.5,261.5C 153.583,263.334 152.25,266 152.5,269.5C 152.776,276.624 156.276,279.291 163,277.5C 163.692,278.025 164.192,278.692 164.5,279.5C 161.1,280.909 157.767,282.409 154.5,284C 161.49,289.582 160.323,293.082 151,294.5C 150.167,294.167 149.333,293.833 148.5,293.5C 149.914,292.376 151.414,291.376 153,290.5C 153.597,288.076 152.763,286.243 150.5,285C 150.759,283.739 151.426,282.739 152.5,282C 145.574,277.422 143.741,271.255 147,263.5C 148.914,261.144 151.081,259.144 153.5,257.5 Z"/></g>
<g><path style="opacity:1" fill="#f7ecdf" d="M 233.5,257.5 C 238.844,257.334 244.177,257.501 249.5,258C 248.421,258.956 247.255,259.789 246,260.5C 245.5,268.827 245.334,277.16 245.5,285.5C 248.518,285.665 251.518,285.498 254.5,285C 255.669,282.993 256.335,280.827 256.5,278.5C 258.167,278.5 259.833,278.5 261.5,278.5C 261.577,282.215 261.244,285.881 260.5,289.5C 251.475,289.832 242.475,289.498 233.5,288.5C 234.328,287.585 235.328,286.919 236.5,286.5C 237.498,277.525 237.832,268.525 237.5,259.5C 235.517,259.843 234.183,259.176 233.5,257.5 Z"/></g>
<g><path style="opacity:1" fill="#ff1e12" d="M 129.5,257.5 C 134.248,257.081 136.581,259.248 136.5,264C 136.317,268.209 134.483,271.376 131,273.5C 128.501,273.184 127.001,271.851 126.5,269.5C 127.717,265.513 128.717,261.513 129.5,257.5 Z"/></g>
<g><path style="opacity:1" fill="#f7ece0" d="M 327.5,259.5 C 330.518,259.335 333.518,259.502 336.5,260C 340.421,262.807 340.087,265.307 335.5,267.5C 333.417,266.041 331.25,264.708 329,263.5C 325.757,267.762 325.757,272.096 329,276.5C 330.182,278.357 331.849,279.357 334,279.5C 336.472,278.678 338.972,278.011 341.5,277.5C 336.752,285.587 330.585,286.587 323,280.5C 318.499,272.02 319.999,265.02 327.5,259.5 Z"/></g>
<g><path style="opacity:1" fill="#f7ebde" d="M 176.5,260.5 C 181.447,259.628 185.613,260.961 189,264.5C 189.036,270.487 188.869,276.487 188.5,282.5C 190.355,282.272 191.188,282.939 191,284.5C 187.006,287.415 183.34,287.081 180,283.5C 175.396,286.516 171.396,285.85 168,281.5C 166.959,278.364 167.793,275.864 170.5,274C 174.446,273.825 178.28,273.658 182,273.5C 182.667,270.833 182.667,268.167 182,265.5C 180.301,264.594 178.467,264.261 176.5,264.5C 176.574,268.701 174.741,270.035 171,268.5C 169.22,263.135 171.054,260.468 176.5,260.5 Z"/></g>
<g><path style="opacity:1" fill="#f7eee1" d="M 202.5,263.5 C 214.801,263.312 219.635,269.312 217,281.5C 213.903,288.132 208.736,290.299 201.5,288C 194.93,284.345 192.763,278.845 195,271.5C 196.353,267.65 198.853,264.983 202.5,263.5 Z"/></g>
<g><path style="opacity:1" fill="#f8e9dc" d="M 306.5,262.5 C 309.505,262.253 312.005,263.253 314,265.5C 315.161,270.414 315.994,275.414 316.5,280.5C 317.249,282.036 318.249,283.369 319.5,284.5C 315.335,286.352 311.002,286.852 306.5,286C 307,285.5 307.5,285 308,284.5C 308.667,279.833 308.667,275.167 308,270.5C 305.925,268.352 303.592,268.018 301,269.5C 300.502,274.519 300.668,279.519 301.5,284.5C 302.5,284.5 303.5,284.5 304.5,284.5C 304.5,285.5 304.5,286.5 304.5,287.5C 299.754,287.888 295.087,287.888 290.5,287.5C 291.242,286.713 292.075,286.047 293,285.5C 293.554,279.812 293.387,274.145 292.5,268.5C 291.167,268.5 289.833,268.5 288.5,268.5C 288.36,266.876 289.027,265.71 290.5,265C 294.704,262.341 297.871,263.175 300,267.5C 302.326,265.934 304.492,264.268 306.5,262.5 Z"/></g>
<g><path style="opacity:1" fill="#f7eade" d="M 272.5,264.5 C 276.516,263.9 280.016,264.9 283,267.5C 283.633,273.161 284.133,278.828 284.5,284.5C 285.978,284.238 287.311,284.571 288.5,285.5C 285.312,290.181 281.812,290.515 278,286.5C 272.197,292.237 267.364,291.57 263.5,284.5C 263.848,282.303 264.848,280.47 266.5,279C 269.817,278.502 273.15,278.335 276.5,278.5C 276.664,275.813 276.497,273.146 276,270.5C 274.556,268.845 272.722,268.178 270.5,268.5C 270.167,270.5 269.833,272.5 269.5,274.5C 264.841,274.189 263.507,271.856 265.5,267.5C 268.016,266.67 270.35,265.67 272.5,264.5 Z"/></g>
<g><path style="opacity:1" fill="#ecae41" d="M 432.5,250.5 C 434.472,257.711 436.472,265.045 438.5,272.5C 438.457,273.416 438.124,274.083 437.5,274.5C 435.07,266.686 433.404,258.686 432.5,250.5 Z"/></g>
<g><path style="opacity:1" fill="#ff130b" d="M 204.5,267.5 C 209.368,267.873 211.368,270.539 210.5,275.5C 210.458,278.259 209.958,280.925 209,283.5C 203.155,285.278 200.655,282.945 201.5,276.5C 201.14,272.99 202.14,269.99 204.5,267.5 Z"/></g>
<g><path style="opacity:1" fill="#fe3325" d="M 176.5,276.5 C 178.167,276.5 179.833,276.5 181.5,276.5C 181.56,280.485 179.56,282.152 175.5,281.5C 175.366,279.708 175.699,278.042 176.5,276.5 Z"/></g>
<g><path style="opacity:1" fill="#ff3223" d="M 273.5,280.5 C 274.833,280.5 276.167,280.5 277.5,280.5C 277.56,284.485 275.56,286.152 271.5,285.5C 271.365,283.446 272.032,281.779 273.5,280.5 Z"/></g>
<g><path style="opacity:1" fill="#e9a729" d="M 196.5,372.5 C 196.5,370.5 196.5,368.5 196.5,366.5C 250.14,387.39 298.306,378.723 341,340.5C 353.263,327.645 362.763,312.979 369.5,296.5C 371.484,295.306 373.484,295.306 375.5,296.5C 365.642,322.049 349.642,342.882 327.5,359C 286.143,385.622 242.477,390.122 196.5,372.5 Z"/></g>
<g><path style="opacity:1" fill="#e9a728" d="M 131.5,296.5 C 140.057,318.603 153.724,336.936 172.5,351.5C 173.298,351.043 173.631,350.376 173.5,349.5C 174.402,352.997 175.069,356.663 175.5,360.5C 151.243,344.614 134.743,322.948 126,295.5C 127.699,296.406 129.533,296.739 131.5,296.5 Z"/></g>
<g><path style="opacity:1" fill="#fffefd" d="M 369.5,296.5 C 362.763,312.979 353.263,327.645 341,340.5C 298.306,378.723 250.14,387.39 196.5,366.5C 194.509,352.335 195.176,338.335 198.5,324.5C 199.488,323.205 200.488,321.872 201.5,320.5C 202.75,320.577 203.583,321.244 204,322.5C 205.265,333.47 206.265,344.47 207,355.5C 208.667,359.5 210.333,359.5 212,355.5C 214.859,342.674 216.025,329.674 215.5,316.5C 218.479,314.188 221.146,311.521 223.5,308.5C 272.56,309.009 321.227,305.009 369.5,296.5 Z"/></g>
<g><path style="opacity:1" fill="#fefefd" d="M 131.5,296.5 C 148.349,299.908 165.349,302.574 182.5,304.5C 179.911,312.436 177.411,320.436 175,328.5C 173.712,335.437 173.212,342.437 173.5,349.5C 173.631,350.376 173.298,351.043 172.5,351.5C 153.724,336.936 140.057,318.603 131.5,296.5 Z"/></g>
<g><path style="opacity:1" fill="#ffa806" d="M 182.5,304.5 C 190.128,305.578 197.794,306.245 205.5,306.5C 203.807,312.556 201.141,318.222 197.5,323.5C 197.624,324.107 197.957,324.44 198.5,324.5C 195.176,338.335 194.509,352.335 196.5,366.5C 196.5,368.5 196.5,370.5 196.5,372.5C 196.632,375.57 196.299,378.57 195.5,381.5C 195.269,386.698 194.103,391.698 192,396.5C 191.3,398.032 190.134,399.032 188.5,399.5C 184.378,390.802 181.045,381.802 178.5,372.5C 177.808,368.4 176.808,364.4 175.5,360.5C 175.069,356.663 174.402,352.997 173.5,349.5C 173.212,342.437 173.712,335.437 175,328.5C 177.411,320.436 179.911,312.436 182.5,304.5 Z"/></g>
<g><path style="opacity:1" fill="#ffaa0f" d="M 215.5,316.5 C 216.025,329.674 214.859,342.674 212,355.5C 210.333,359.5 208.667,359.5 207,355.5C 206.265,344.47 205.265,333.47 204,322.5C 203.583,321.244 202.75,320.577 201.5,320.5C 204.352,316.13 206.685,311.463 208.5,306.5C 210.747,307.374 213.08,307.708 215.5,307.5C 215.5,310.5 215.5,313.5 215.5,316.5 Z"/></g>
<g><path style="opacity:1" fill="#ff3600" d="M 182.5,317.5 C 183.124,317.917 183.457,318.584 183.5,319.5C 181.766,325.405 181.266,331.405 182,337.5C 183.667,341.5 185.333,341.5 187,337.5C 187.186,335.1 187.686,332.766 188.5,330.5C 189.711,333.876 189.544,337.209 188,340.5C 185.667,343.167 183.333,343.167 181,340.5C 178.996,332.699 179.496,325.033 182.5,317.5 Z"/></g>
<g><path style="opacity:1" fill="#ff2f00" d="M 190.5,356.5 C 191.812,358.743 192.478,361.41 192.5,364.5C 192.739,369.379 191.906,374.045 190,378.5C 189.035,380.26 187.868,380.594 186.5,379.5C 188.831,377.383 189.997,374.716 190,371.5C 190.499,366.511 190.666,361.511 190.5,356.5 Z"/></g>
</svg>
