<?xml version="1.0" encoding="UTF-8"?>
<!DOCTYPE svg PUBLIC "-//W3C//DTD SVG 1.1//EN" "http://www.w3.org/Graphics/SVG/1.1/DTD/svg11.dtd">
<svg xmlns="http://www.w3.org/2000/svg" version="1.1" width="500px" height="500px" style="shape-rendering:geometricPrecision; text-rendering:geometricPrecision; image-rendering:optimizeQuality; fill-rule:evenodd; clip-rule:evenodd" xmlns:xlink="http://www.w3.org/1999/xlink">
<g><path style="opacity:1" fill="#fefefe" d="M -0.5,-0.5 C 166.167,-0.5 332.833,-0.5 499.5,-0.5C 499.5,166.167 499.5,332.833 499.5,499.5C 332.833,499.5 166.167,499.5 -0.5,499.5C -0.5,332.833 -0.5,166.167 -0.5,-0.5 Z"/></g>
<g><path style="opacity:1" fill="#e17c08" d="M 293.5,82.5 C 285.9,85.9241 281.067,91.5908 279,99.5C 282.858,91.1013 288.691,85.768 296.5,83.5C 312.909,87.9142 328.242,94.7476 342.5,104C 350.838,109.829 356.171,117.663 358.5,127.5C 347.807,129.854 340.474,136.188 336.5,146.5C 326.184,135.868 314.184,127.535 300.5,121.5C 298.422,118.949 295.756,117.116 292.5,116C 291.919,115.107 291.585,114.107 291.5,113C 293.122,106.085 297.122,101.085 303.5,98C 304.696,97.3457 304.696,96.8457 303.5,96.5C 295.601,100.067 290.601,106.067 288.5,114.5C 267.278,105.406 245.278,102.406 222.5,105.5C 221.287,105.747 220.62,106.414 220.5,107.5C 219.833,107.833 219.167,108.167 218.5,108.5C 215.472,107.932 212.805,106.599 210.5,104.5C 207.065,84.9237 215.398,74.757 235.5,74C 255.575,72.6548 274.908,75.4882 293.5,82.5 Z"/></g>
<g><path style="opacity:1" fill="#f82401" d="M 248.5,76.5 C 249.043,76.56 249.376,76.8933 249.5,77.5C 243.979,81.8661 240.479,87.5328 239,94.5C 238.876,86.7841 242.042,80.7841 248.5,76.5 Z"/></g>
<g><path style="opacity:1" fill="#f72701" d="M 259.5,83.5 C 260.043,83.56 260.376,83.8933 260.5,84.5C 255.141,89.8592 252.641,96.1925 253,103.5C 251.443,100.706 251.11,97.7055 252,94.5C 253.518,90.151 256.018,86.4844 259.5,83.5 Z"/></g>
<g><path style="opacity:1" fill="#f72701" d="M 293.5,82.5 C 294.791,82.2627 295.791,82.596 296.5,83.5C 288.691,85.768 282.858,91.1013 279,99.5C 281.067,91.5908 285.9,85.9241 293.5,82.5 Z"/></g>
<g><path style="opacity:1" fill="#fe1405" d="M 210.5,104.5 C 212.805,106.599 215.472,107.932 218.5,108.5C 218.167,109.167 217.833,109.833 217.5,110.5C 180.091,121.573 154.091,145.239 139.5,181.5C 138.883,181.389 138.383,181.056 138,180.5C 137.502,177.518 137.335,174.518 137.5,171.5C 137.5,169.5 137.5,167.5 137.5,165.5C 153.637,135.363 177.971,115.03 210.5,104.5 Z"/></g>
<g><path style="opacity:1" fill="#fea602" d="M 300.5,121.5 C 314.184,127.535 326.184,135.868 336.5,146.5C 336.657,147.873 336.49,149.207 336,150.5C 320.291,168.038 304.791,185.705 289.5,203.5C 283.833,203.5 278.167,203.5 272.5,203.5C 273.473,201.932 273.64,200.265 273,198.5C 271.878,200.407 271.045,202.407 270.5,204.5C 269.5,204.5 268.5,204.5 267.5,204.5C 268.177,192.537 267.51,192.537 265.5,204.5C 261.958,204.813 258.625,204.479 255.5,203.5C 256.945,200.882 258.611,198.382 260.5,196C 258.759,194.38 256.925,192.88 255,191.5C 254.303,193.584 253.136,195.251 251.5,196.5C 249.127,198.579 247.794,201.246 247.5,204.5C 244.833,204.5 242.167,204.5 239.5,204.5C 241.519,197.823 244.019,191.49 247,185.5C 241.985,190.863 239.152,197.196 238.5,204.5C 236.833,204.5 235.167,204.5 233.5,204.5C 231.907,196.611 231.407,188.611 232,180.5C 236.58,174.34 240.914,168.007 245,161.5C 248.255,154.195 246.422,148.695 239.5,145C 232.566,144.197 226.233,145.864 220.5,150C 217,152.669 213.667,155.502 210.5,158.5C 212.293,144.074 214.627,129.74 217.5,115.5C 217.5,113.833 217.5,112.167 217.5,110.5C 217.833,109.833 218.167,109.167 218.5,108.5C 219.167,108.167 219.833,107.833 220.5,107.5C 248.55,104.175 275.217,108.842 300.5,121.5 Z"/></g>
<g><path style="opacity:1" fill="#e9a628" d="M 217.5,110.5 C 217.5,112.167 217.5,113.833 217.5,115.5C 183.874,125.95 159.708,147.283 145,179.5C 143.202,183.726 141.702,188.06 140.5,192.5C 140.608,193.442 140.941,194.275 141.5,195C 161.402,198.348 181.402,200.848 201.5,202.5C 203.467,202.739 205.301,202.406 207,201.5C 209.724,202.776 212.724,203.442 216,203.5C 218.833,203.333 221.667,203.167 224.5,203C 223.549,202.282 223.383,201.449 224,200.5C 226.04,204.131 229.207,205.464 233.5,204.5C 235.167,204.5 236.833,204.5 238.5,204.5C 238.833,204.5 239.167,204.5 239.5,204.5C 242.167,204.5 244.833,204.5 247.5,204.5C 247.833,204.5 248.167,204.5 248.5,204.5C 250.766,204.859 252.599,204.192 254,202.5C 254.383,203.056 254.883,203.389 255.5,203.5C 258.625,204.479 261.958,204.813 265.5,204.5C 266.167,204.5 266.833,204.5 267.5,204.5C 268.5,204.5 269.5,204.5 270.5,204.5C 271.492,204.672 272.158,204.338 272.5,203.5C 278.167,203.5 283.833,203.5 289.5,203.5C 290.959,203.567 292.292,203.234 293.5,202.5C 310.58,201.465 327.58,199.632 344.5,197C 349.264,196.152 353.931,194.985 358.5,193.5C 354.002,179.506 347.669,166.506 339.5,154.5C 341.144,154.714 342.644,154.38 344,153.5C 350.282,161.726 355.282,170.726 359,180.5C 359.499,184.486 359.666,188.486 359.5,192.5C 361.696,192.59 363.863,192.923 366,193.5C 367.876,193.475 369.376,192.809 370.5,191.5C 383.311,189.463 395.978,186.797 408.5,183.5C 408.5,184.833 408.5,186.167 408.5,187.5C 315.575,211.797 221.908,214.964 127.5,197C 114.979,194.398 102.645,191.231 90.5,187.5C 90.238,186.022 90.5713,184.689 91.5,183.5C 103.354,187.13 115.354,190.13 127.5,192.5C 130.096,193.265 132.763,193.599 135.5,193.5C 137.064,189.766 138.397,185.766 139.5,181.5C 154.091,145.239 180.091,121.573 217.5,110.5 Z"/></g>
<g><path style="opacity:1" fill="#e67604" d="M 232.5,110.5 C 237.495,109.582 239.828,111.582 239.5,116.5C 238.5,116.5 237.5,116.5 236.5,116.5C 238.307,120.524 237.141,121.858 233,120.5C 232.383,119.551 232.549,118.718 233.5,118C 229.88,116.006 229.547,113.506 232.5,110.5 Z"/></g>
<g><path style="opacity:1" fill="#e27d05" d="M 265.5,120.5 C 266.552,120.649 267.552,120.483 268.5,120C 266.593,118.878 264.593,118.045 262.5,117.5C 266.323,112.257 270.489,112.257 275,117.5C 275.793,122.211 273.959,123.877 269.5,122.5C 268.05,123.85 267.383,125.516 267.5,127.5C 261.635,126.899 260.968,124.566 265.5,120.5 Z"/></g>
<g><path style="opacity:1" fill="#f83400" d="M 300.5,121.5 C 275.217,108.842 248.55,104.175 220.5,107.5C 220.62,106.414 221.287,105.747 222.5,105.5C 245.278,102.406 267.278,105.406 288.5,114.5C 290.601,106.067 295.601,100.067 303.5,96.5C 304.696,96.8457 304.696,97.3457 303.5,98C 297.122,101.085 293.122,106.085 291.5,113C 291.585,114.107 291.919,115.107 292.5,116C 295.756,117.116 298.422,118.949 300.5,121.5 Z"/></g>
<g><path style="opacity:1" fill="#fefefd" d="M 217.5,115.5 C 214.627,129.74 212.293,144.074 210.5,158.5C 209.928,160.255 209.094,161.922 208,163.5C 205.671,176.48 203.504,189.48 201.5,202.5C 181.402,200.848 161.402,198.348 141.5,195C 140.941,194.275 140.608,193.442 140.5,192.5C 141.702,188.06 143.202,183.726 145,179.5C 159.708,147.283 183.874,125.95 217.5,115.5 Z"/></g>
<g><path style="opacity:1" fill="#f62c01" d="M 336.5,106.5 C 337.239,106.369 337.906,106.536 338.5,107C 330.813,112.871 326.646,120.704 326,130.5C 324.794,120.567 328.294,112.567 336.5,106.5 Z"/></g>
<g><path style="opacity:1" fill="#ff3d00" d="M 222.5,114.5 C 222.681,118.635 222.848,122.968 223,127.5C 223.375,130 224.208,132.333 225.5,134.5C 225.167,134.833 224.833,135.167 224.5,135.5C 220.078,128.877 219.412,121.877 222.5,114.5 Z"/></g>
<g><path style="opacity:1" fill="#fa2700" d="M 262.5,117.5 C 264.593,118.045 266.593,118.878 268.5,120C 267.552,120.483 266.552,120.649 265.5,120.5C 263.856,120.19 262.856,119.19 262.5,117.5 Z"/></g>
<g><path style="opacity:1" fill="#ff3700" d="M 253.5,115.5 C 258.136,119.439 260.636,124.439 261,130.5C 258.489,125.478 255.989,120.478 253.5,115.5 Z"/></g>
<g><path style="opacity:1" fill="#ff2e00" d="M 241.5,117.5 C 249.276,117.172 254.776,120.839 258,128.5C 258.667,130.5 258.667,132.5 258,134.5C 256.418,125.084 250.918,119.418 241.5,117.5 Z"/></g>
<g><path style="opacity:1" fill="#ff382f" d="M 281.5,123.5 C 283.989,123.298 286.323,123.798 288.5,125C 291.643,129.444 295.143,133.611 299,137.5C 304.424,152.316 303.091,166.649 295,180.5C 292.062,185.786 287.728,189.119 282,190.5C 278.154,190.324 275.82,188.324 275,184.5C 275.416,174.172 275.749,163.838 276,153.5C 272.747,148.24 270.58,142.574 269.5,136.5C 269.577,134.701 270.077,133.034 271,131.5C 273.94,127.963 277.44,125.297 281.5,123.5 Z"/></g>
<g><path style="opacity:1" fill="#fff4ee" d="M 245.5,137.5 C 244.517,133.531 242.517,130.198 239.5,127.5C 243.129,126.231 245.629,127.564 247,131.5C 249.394,134.303 248.894,136.303 245.5,137.5 Z"/></g>
<g><path style="opacity:1" fill="#ff4000" d="M 226.5,119.5 C 227.792,123.682 228.625,128.015 229,132.5C 225.79,128.567 224.957,124.234 226.5,119.5 Z"/></g>
<g><path style="opacity:1" fill="#fe1003" d="M 358.5,127.5 C 360.643,136.079 358.31,143.412 351.5,149.5C 354.444,154.572 357.444,158.906 360.5,162.5C 375.723,164.903 389.723,170.237 402.5,178.5C 403.29,179.794 404.29,180.961 405.5,182C 393.574,184.729 381.907,187.895 370.5,191.5C 369.376,192.809 367.876,193.475 366,193.5C 363.863,192.923 361.696,192.59 359.5,192.5C 359.666,188.486 359.499,184.486 359,180.5C 355.282,170.726 350.282,161.726 344,153.5C 342.644,154.38 341.144,154.714 339.5,154.5C 336.269,156.22 333.436,158.553 331,161.5C 318.662,175.337 306.162,189.003 293.5,202.5C 292.292,203.234 290.959,203.567 289.5,203.5C 304.791,185.705 320.291,168.038 336,150.5C 336.49,149.207 336.657,147.873 336.5,146.5C 340.474,136.188 347.807,129.854 358.5,127.5 Z"/></g>
<g><path style="opacity:1" fill="#ff3c16" d="M 239.5,127.5 C 242.517,130.198 244.517,133.531 245.5,137.5C 243.592,134.72 241.425,132.053 239,129.5C 238.308,128.563 238.475,127.897 239.5,127.5 Z"/></g>
<g><path style="opacity:1" fill="#e9a629" d="M 118.5,156.5 C 97.1915,151.175 76.1915,144.841 55.5,137.5C 55.2488,135.83 54.5822,134.33 53.5,133C 77.0381,140.232 100.705,147.399 124.5,154.5C 122.589,155.477 120.589,156.143 118.5,156.5 Z"/></g>
<g><path style="opacity:1" fill="#eaab33" d="M 443.5,137.5 C 421.969,144.299 400.303,150.633 378.5,156.5C 376.411,156.143 374.411,155.477 372.5,154.5C 396.394,147.942 420.06,140.609 443.5,132.5C 444.052,134.003 444.052,135.669 443.5,137.5 Z"/></g>
<g><path style="opacity:1" fill="#fe0e03" d="M 55.5,137.5 C 76.1915,144.841 97.1915,151.175 118.5,156.5C 120.277,157.6 122.277,158.434 124.5,159C 109.342,162.66 96.1755,169.826 85,180.5C 84.5892,185.519 84.0892,190.519 83.5,195.5C 66.5298,191.592 49.8631,186.759 33.5,181C 35.3146,180.243 36.9812,179.41 38.5,178.5C 47.1771,175.493 55.8438,172.493 64.5,169.5C 64.7845,167.585 64.4511,165.919 63.5,164.5C 60.3183,155.965 56.985,147.465 53.5,139C 53.8361,137.97 54.5028,137.47 55.5,137.5 Z"/></g>
<g><path style="opacity:1" fill="#fe0902" d="M 443.5,137.5 C 443.938,137.435 444.272,137.601 444.5,138C 440.691,147.117 437.024,156.283 433.5,165.5C 432.316,166.688 432.316,167.855 433.5,169C 441.818,172.272 450.151,175.438 458.5,178.5C 460.277,179.6 462.277,180.434 464.5,181C 447.975,186.342 431.308,191.175 414.5,195.5C 413.672,190.868 413.172,186.202 413,181.5C 401.668,170.247 388.168,162.747 372.5,159C 374.611,158.155 376.611,157.322 378.5,156.5C 400.303,150.633 421.969,144.299 443.5,137.5 Z"/></g>
<g><path style="opacity:1" fill="#ff8f0b" d="M 278.5,132.5 C 278.648,134.934 278.814,137.601 279,140.5C 280.919,142.691 282.253,145.024 283,147.5C 277.277,143.472 275.777,138.472 278.5,132.5 Z"/></g>
<g><path style="opacity:1" fill="#ff3830" d="M 233.5,204.5 C 229.207,205.464 226.04,204.131 224,200.5C 223.383,201.449 223.549,202.282 224.5,203C 221.667,203.167 218.833,203.333 216,203.5C 212.724,203.442 209.724,202.776 207,201.5C 205.301,202.406 203.467,202.739 201.5,202.5C 203.504,189.48 205.671,176.48 208,163.5C 209.094,161.922 209.928,160.255 210.5,158.5C 213.667,155.502 217,152.669 220.5,150C 226.233,145.864 232.566,144.197 239.5,145C 246.422,148.695 248.255,154.195 245,161.5C 240.914,168.007 236.58,174.34 232,180.5C 231.407,188.611 231.907,196.611 233.5,204.5 Z"/></g>
<g><path style="opacity:1" fill="#ff900b" d="M 284.5,139.5 C 289.944,143.09 292.444,148.09 292,154.5C 290.533,148.899 288.033,143.899 284.5,139.5 Z"/></g>
<g><path style="opacity:1" fill="#ff8e0d" d="M 231.5,147.5 C 242.029,147.878 244.862,152.878 240,162.5C 240.405,158.879 240.405,155.213 240,151.5C 238.136,148.793 235.636,147.959 232.5,149C 230.649,149.837 228.816,150.671 227,151.5C 226.312,150.668 226.479,150.002 227.5,149.5C 229.026,149.006 230.359,148.339 231.5,147.5 Z"/></g>
<g><path style="opacity:1" fill="#fffbf8" d="M 262.5,155.5 C 258.863,160.066 257.53,165.066 258.5,170.5C 258.53,171.497 258.03,172.164 257,172.5C 255.234,171.767 253.401,171.433 251.5,171.5C 250.775,165.725 251.941,160.392 255,155.5C 257.605,154.186 260.105,154.186 262.5,155.5 Z"/></g>
<g><path style="opacity:1" fill="#ff8a0e" d="M 289.5,136.5 C 295.54,141.788 297.706,148.454 296,156.5C 295.527,158.779 294.527,160.779 293,162.5C 294.461,156.686 294.794,150.686 294,144.5C 292.644,141.671 291.144,139.004 289.5,136.5 Z"/></g>
<g><path style="opacity:1" fill="#ff9509" d="M 226.5,154.5 C 229.119,154.232 231.619,154.565 234,155.5C 234.635,159.597 233.635,163.264 231,166.5C 232.09,163.03 232.59,159.363 232.5,155.5C 225.911,156.899 220.411,160.233 216,165.5C 215.333,164.833 215.333,164.167 216,163.5C 219.292,160.127 222.792,157.127 226.5,154.5 Z"/></g>
<g><path style="opacity:1" fill="#fffdfc" d="M 339.5,154.5 C 347.669,166.506 354.002,179.506 358.5,193.5C 353.931,194.985 349.264,196.152 344.5,197C 327.58,199.632 310.58,201.465 293.5,202.5C 306.162,189.003 318.662,175.337 331,161.5C 333.436,158.553 336.269,156.22 339.5,154.5 Z"/></g>
<g><path style="opacity:1" fill="#ff3f00" d="M 316.5,150.5 C 317.649,150.791 318.316,151.624 318.5,153C 318.037,156.356 317.037,159.522 315.5,162.5C 315.167,162.167 314.833,161.833 314.5,161.5C 315.681,157.928 316.348,154.262 316.5,150.5 Z"/></g>
<g><path style="opacity:1" fill="#e9a82d" d="M 137.5,165.5 C 137.5,167.5 137.5,169.5 137.5,171.5C 137.167,171.5 136.833,171.5 136.5,171.5C 136.5,168.5 136.5,165.5 136.5,162.5C 121.382,164.352 107.715,169.685 95.5,178.5C 94.6236,178.631 93.9569,178.298 93.5,177.5C 103.252,168.79 114.585,162.956 127.5,160C 130.757,158.957 134.09,158.457 137.5,158.5C 137.5,160.833 137.5,163.167 137.5,165.5 Z"/></g>
<g><path style="opacity:1" fill="#e9a62a" d="M 402.5,178.5 C 389.723,170.237 375.723,164.903 360.5,162.5C 360.5,161.167 360.5,159.833 360.5,158.5C 377.489,160.377 392.489,166.711 405.5,177.5C 404.675,178.386 403.675,178.719 402.5,178.5 Z"/></g>
<g><path style="opacity:1" fill="#ff4b31" d="M 262.5,155.5 C 263.043,155.56 263.376,155.893 263.5,156.5C 261,161.007 259.334,165.674 258.5,170.5C 257.53,165.066 258.863,160.066 262.5,155.5 Z"/></g>
<g><path style="opacity:1" fill="#ff3f00" d="M 308.5,136.5 C 312.139,141.089 313.805,146.422 313.5,152.5C 313.829,158.511 312.162,163.845 308.5,168.5C 308.167,168.333 307.833,168.167 307.5,168C 310.769,163.354 312.103,158.188 311.5,152.5C 311.747,146.914 310.747,141.581 308.5,136.5 Z"/></g>
<g><path style="opacity:1" fill="#ff8b0d" d="M 283.5,153.5 C 285.432,155.544 286.432,158.044 286.5,161C 285.207,166.547 283.707,172.047 282,177.5C 282.178,171.943 283.012,166.443 284.5,161C 284.275,158.472 283.942,155.972 283.5,153.5 Z"/></g>
<g><path style="opacity:1" fill="#fe0c03" d="M 136.5,171.5 C 136.797,178.92 136.464,186.254 135.5,193.5C 132.763,193.599 130.096,193.265 127.5,192.5C 127.119,191.069 126.119,190.236 124.5,190C 113.346,187.948 102.346,185.282 91.5,182C 92.7305,180.595 94.0639,179.429 95.5,178.5C 107.715,169.685 121.382,164.352 136.5,162.5C 136.5,165.5 136.5,168.5 136.5,171.5 Z"/></g>
<g><path style="opacity:1" fill="#e9a629" d="M 433.5,165.5 C 443.784,168.649 453.784,172.483 463.5,177C 461.846,177.608 460.179,178.108 458.5,178.5C 450.151,175.438 441.818,172.272 433.5,169C 432.316,167.855 432.316,166.688 433.5,165.5 Z"/></g>
<g><path style="opacity:1" fill="#eaa933" d="M 63.5,164.5 C 64.4511,165.919 64.7845,167.585 64.5,169.5C 55.8438,172.493 47.1771,175.493 38.5,178.5C 37.234,177.91 35.9007,177.41 34.5,177C 43.7206,173.147 53.0539,169.48 62.5,166C 63.056,165.617 63.3893,165.117 63.5,164.5 Z"/></g>
<g><path style="opacity:1" fill="#ff890f" d="M 279.5,163.5 C 280.327,168.651 280.827,173.984 281,179.5C 281.976,181.887 283.809,183.054 286.5,183C 283.903,185.033 281.737,184.533 280,181.5C 278.171,175.543 278.004,169.543 279.5,163.5 Z"/></g>
<g><path style="opacity:1" fill="#ff731a" d="M 222.5,165.5 C 223.117,165.611 223.617,165.944 224,166.5C 224.818,169.227 224.652,171.894 223.5,174.5C 222.516,171.572 222.183,168.572 222.5,165.5 Z"/></g>
<g><path style="opacity:1" fill="#ff870f" d="M 216.5,172.5 C 221.924,173.017 223.424,175.684 221,180.5C 213.158,187.08 212.825,186.746 220,179.5C 220.494,177.866 220.66,176.199 220.5,174.5C 218.801,174.66 217.134,174.494 215.5,174C 216.056,173.617 216.389,173.117 216.5,172.5 Z"/></g>
<g><path style="opacity:1" fill="#e27c05" d="M 268.5,180.5 C 267.35,179.15 266.683,179.316 266.5,181C 266.978,182.642 267.978,183.809 269.5,184.5C 269.143,188.395 267.143,189.395 263.5,187.5C 262.691,185.929 262.357,184.262 262.5,182.5C 263.028,181.153 263.195,179.819 263,178.5C 261.603,180.07 260.103,181.404 258.5,182.5C 256.042,180.507 255.875,178.174 258,175.5C 261.877,171.005 265.877,170.672 270,174.5C 270.941,176.989 270.441,178.989 268.5,180.5 Z"/></g>
<g><path style="opacity:1" fill="#ff9309" d="M 212.5,173.5 C 213.043,173.56 213.376,173.893 213.5,174.5C 212.081,176.336 210.914,178.336 210,180.5C 209.683,177.793 210.516,175.46 212.5,173.5 Z"/></g>
<g><path style="opacity:1" fill="#fa2d00" d="M 268.5,180.5 C 268.833,181.833 269.167,183.167 269.5,184.5C 267.978,183.809 266.978,182.642 266.5,181C 266.683,179.316 267.35,179.15 268.5,180.5 Z"/></g>
<g><path style="opacity:1" fill="#fb2800" d="M 262.5,182.5 C 261.167,182.5 259.833,182.5 258.5,182.5C 260.103,181.404 261.603,180.07 263,178.5C 263.195,179.819 263.028,181.153 262.5,182.5 Z"/></g>
<g><path style="opacity:1" fill="#f06d16" d="M 136.5,171.5 C 136.833,171.5 137.167,171.5 137.5,171.5C 137.335,174.518 137.502,177.518 138,180.5C 138.383,181.056 138.883,181.389 139.5,181.5C 138.397,185.766 137.064,189.766 135.5,193.5C 136.464,186.254 136.797,178.92 136.5,171.5 Z"/></g>
<g><path style="opacity:1" fill="#fe0f05" d="M 90.5,187.5 C 102.645,191.231 114.979,194.398 127.5,197C 221.908,214.964 315.575,211.797 408.5,187.5C 407.958,201.643 408.958,215.643 411.5,229.5C 412.343,234.536 413.343,239.536 414.5,244.5C 414.678,245.695 415.011,246.862 415.5,248C 415.095,248.945 414.428,249.612 413.5,250C 398.905,253.982 384.239,257.649 369.5,261C 348.344,317.511 307.511,346.678 247,348.5C 231.17,348.72 216.003,345.72 201.5,339.5C 201.194,336.615 201.527,333.948 202.5,331.5C 252.902,349.908 297.402,340.575 336,303.5C 346.662,291.845 354.495,278.511 359.5,263.5C 357.708,263.366 356.042,263.699 354.5,264.5C 311.882,272.408 268.882,275.908 225.5,275C 223.667,277.998 221.334,280.498 218.5,282.5C 218.5,279.833 218.5,277.167 218.5,274.5C 216.194,274.007 213.861,273.674 211.5,273.5C 210.933,277.967 209.266,281.967 206.5,285.5C 205.488,286.872 204.488,288.205 203.5,289.5C 203.062,289.565 202.728,289.399 202.5,289C 205.603,284.231 208.269,279.231 210.5,274C 203.46,273.296 196.46,272.463 189.5,271.5C 174.335,270.139 159.335,267.806 144.5,264.5C 142.712,264.215 141.045,264.548 139.5,265.5C 148.297,288.62 162.964,306.953 183.5,320.5C 184.371,324.182 185.371,327.848 186.5,331.5C 158.974,315.46 139.974,292.294 129.5,262C 113.449,258.529 97.6156,254.363 82,249.5C 83.3286,241.507 84.9952,233.507 87,225.5C 88.7289,212.733 89.8956,200.067 90.5,187.5 Z"/></g>
<g><path style="opacity:1" fill="#ff8f0b" d="M 224.5,185.5 C 224.973,194.836 220.64,198.003 211.5,195C 219.297,196.715 223.63,193.548 224.5,185.5 Z"/></g>
<g><path style="opacity:1" fill="#ff3300" d="M 239.5,204.5 C 239.167,204.5 238.833,204.5 238.5,204.5C 239.152,197.196 241.985,190.863 247,185.5C 244.019,191.49 241.519,197.823 239.5,204.5 Z"/></g>
<g><path style="opacity:1" fill="#fff4f0" d="M 255.5,203.5 C 254.883,203.389 254.383,203.056 254,202.5C 252.599,204.192 250.766,204.859 248.5,204.5C 249.499,201.838 250.499,199.172 251.5,196.5C 253.136,195.251 254.303,193.584 255,191.5C 256.925,192.88 258.759,194.38 260.5,196C 258.611,198.382 256.945,200.882 255.5,203.5 Z"/></g>
<g><path style="opacity:1" fill="#ff351e" d="M 251.5,196.5 C 250.499,199.172 249.499,201.838 248.5,204.5C 248.167,204.5 247.833,204.5 247.5,204.5C 247.794,201.246 249.127,198.579 251.5,196.5 Z"/></g>
<g><path style="opacity:1" fill="#fd4502" d="M 272.5,203.5 C 272.158,204.338 271.492,204.672 270.5,204.5C 271.045,202.407 271.878,200.407 273,198.5C 273.64,200.265 273.473,201.932 272.5,203.5 Z"/></g>
<g><path style="opacity:1" fill="#fe3f00" d="M 267.5,204.5 C 266.833,204.5 266.167,204.5 265.5,204.5C 267.51,192.537 268.177,192.537 267.5,204.5 Z"/></g>
<g><path style="opacity:1" fill="#f7ede0" d="M 114.5,210.5 C 127.491,210.322 133.324,216.655 132,229.5C 125.514,243.115 116.848,244.781 106,234.5C 101.779,223.995 104.613,215.995 114.5,210.5 Z"/></g>
<g><path style="opacity:1" fill="#fadacd" d="M 208.5,212.5 C 211.937,212.245 214.604,213.412 216.5,216C 215.567,218.818 213.567,219.984 210.5,219.5C 210.5,220.833 210.5,222.167 210.5,223.5C 209.5,223.5 208.5,223.5 207.5,223.5C 208.114,219.865 208.448,216.198 208.5,212.5 Z"/></g>
<g><path style="opacity:1" fill="#fadbcd" d="M 283.5,213.5 C 284.978,213.238 286.311,213.571 287.5,214.5C 288.833,217.167 290.167,219.833 291.5,222.5C 291,222.833 290.5,223.167 290,223.5C 287.04,220.701 284.54,221.034 282.5,224.5C 282.167,223.833 281.833,223.167 281.5,222.5C 282.586,219.58 283.252,216.58 283.5,213.5 Z"/></g>
<g><path style="opacity:1" fill="#ff150c" d="M 116.5,214.5 C 123.159,213.826 126.159,216.826 125.5,223.5C 125.493,227.519 124.327,231.185 122,234.5C 118.751,238.367 115.418,238.367 112,234.5C 109.469,226.926 110.969,220.259 116.5,214.5 Z"/></g>
<g><path style="opacity:1" fill="#f8e8db" d="M 219.5,213.5 C 220.5,213.5 221.5,213.5 222.5,213.5C 220.874,228.064 219.874,228.064 219.5,213.5 Z"/></g>
<g><path style="opacity:1" fill="#f7e5d9" d="M 226.5,214.5 C 229.247,214.187 231.914,214.52 234.5,215.5C 233.079,218.009 231.412,220.343 229.5,222.5C 231.167,223.167 232.833,223.833 234.5,224.5C 231.5,225.833 228.5,225.833 225.5,224.5C 227.043,221.914 228.709,219.414 230.5,217C 228.563,216.878 227.23,216.045 226.5,214.5 Z"/></g>
<g><path style="opacity:1" fill="#f7e7da" d="M 263.5,214.5 C 270.19,213.331 271.857,215.497 268.5,221C 269.833,222.333 271.167,223.667 272.5,225C 269.72,225.269 267.554,224.102 266,221.5C 265.781,222.938 265.281,224.271 264.5,225.5C 263.511,221.893 263.177,218.226 263.5,214.5 Z"/></g>
<g><path style="opacity:1" fill="#f6f4e7" d="M 277.5,214.5 C 277.82,217.898 277.487,221.232 276.5,224.5C 275.571,223.311 275.238,221.978 275.5,220.5C 275.025,217.918 275.692,215.918 277.5,214.5 Z"/></g>
<g><path style="opacity:1" fill="#f7e7da" d="M 238.5,214.5 C 241.518,214.335 244.518,214.502 247.5,215C 245.637,217.364 243.971,219.864 242.5,222.5C 243.833,223.167 245.167,223.833 246.5,224.5C 243.554,225.655 240.554,225.821 237.5,225C 239.363,222.636 241.029,220.136 242.5,217.5C 240.668,216.943 239.335,215.943 238.5,214.5 Z"/></g>
<g><path style="opacity:1" fill="#f8e3d6" d="M 253.5,214.5 C 254.675,214.281 255.675,214.614 256.5,215.5C 257.559,218.618 258.892,221.618 260.5,224.5C 260,224.833 259.5,225.167 259,225.5C 257.78,224.612 256.447,223.945 255,223.5C 253.213,224.563 251.379,225.063 249.5,225C 251.326,221.688 252.66,218.188 253.5,214.5 Z"/></g>
<g><path style="opacity:1" fill="#ff4334" d="M 210.5,214.5 C 214.31,215.754 214.31,216.754 210.5,217.5C 210.5,216.5 210.5,215.5 210.5,214.5 Z"/></g>
<g><path style="opacity:1" fill="#f7eadd" d="M 384.5,216.5 C 386.833,216.5 389.167,216.5 391.5,216.5C 391.936,219.364 391.103,221.697 389,223.5C 387.118,220.109 384.951,219.776 382.5,222.5C 382.977,223.478 383.643,224.311 384.5,225C 387.529,225.539 390.529,226.206 393.5,227C 397.53,230.957 397.197,234.623 392.5,238C 388.605,239.266 384.605,239.766 380.5,239.5C 380.5,237.833 380.5,236.167 380.5,234.5C 383.807,235.051 387.14,235.384 390.5,235.5C 390.67,234.178 390.337,233.011 389.5,232C 385.228,231.48 381.395,229.98 378,227.5C 377.333,225.5 377.333,223.5 378,221.5C 379.965,219.45 382.132,217.783 384.5,216.5 Z"/></g>
<g><path style="opacity:1" fill="#fe3227" d="M 265.5,216.5 C 267.465,216.948 267.798,217.948 266.5,219.5C 265.614,218.675 265.281,217.675 265.5,216.5 Z"/></g>
<g><path style="opacity:1" fill="#fd6b62" d="M 277.5,214.5 C 275.692,215.918 275.025,217.918 275.5,220.5C 274.532,218.393 274.198,216.059 274.5,213.5C 275.791,213.263 276.791,213.596 277.5,214.5 Z"/></g>
<g><path style="opacity:1" fill="#f7eee1" d="M 331.5,218.5 C 332.93,218.421 334.264,218.754 335.5,219.5C 336.729,223.812 337.896,228.145 339,232.5C 340.5,231 342,229.5 343.5,228C 346.347,227.056 348.847,227.556 351,229.5C 352.544,233.552 353.711,237.718 354.5,242C 355.509,243.168 356.509,244.335 357.5,245.5C 353.947,247.48 350.281,248.146 346.5,247.5C 347.415,246.672 348.081,245.672 348.5,244.5C 347.857,241.116 347.023,237.783 346,234.5C 344.573,232.213 342.739,231.88 340.5,233.5C 339.057,239.305 340.391,244.305 344.5,248.5C 341.028,249.576 337.528,250.576 334,251.5C 333.5,251.167 333,250.833 332.5,250.5C 334.012,249.751 335.012,248.584 335.5,247C 333.873,239.864 332.373,232.697 331,225.5C 329.796,224.141 328.296,223.141 326.5,222.5C 328.015,220.918 329.681,219.584 331.5,218.5 Z"/></g>
<g><path style="opacity:1" fill="#fe685a" d="M 254.5,218.5 C 256.332,219.14 256.665,220.14 255.5,221.5C 254.614,220.675 254.281,219.675 254.5,218.5 Z"/></g>
<g><path style="opacity:1" fill="#f7ebde" d="M 363.5,222.5 C 367.257,222.071 370.757,222.737 374,224.5C 376.402,227.714 375.902,230.214 372.5,232C 369.607,233.149 366.607,233.649 363.5,233.5C 364.293,238.776 367.293,240.609 372.5,239C 373.931,238.535 375.097,237.701 376,236.5C 376.692,237.025 377.192,237.692 377.5,238.5C 372.696,245.211 366.863,246.211 360,241.5C 355.77,233.97 356.937,227.636 363.5,222.5 Z"/></g>
<g><path style="opacity:1" fill="#f7e6da" d="M 184.5,222.5 C 187.785,222.893 190.618,224.226 193,226.5C 194.473,226.097 195.806,225.43 197,224.5C 197.692,225.025 198.192,225.692 198.5,226.5C 197.129,228.705 195.296,230.372 193,231.5C 190.667,230.167 188.333,228.833 186,227.5C 184.527,227.903 183.194,228.57 182,229.5C 181.308,228.975 180.808,228.308 180.5,227.5C 181.857,225.814 183.19,224.148 184.5,222.5 Z"/></g>
<g><path style="opacity:1" fill="#f8e9dc" d="M 133.5,224.5 C 137.85,223.981 141.684,224.981 145,227.5C 149.202,225.607 152.535,226.607 155,230.5C 156.817,243.517 151.317,248.85 138.5,246.5C 137.959,249.652 138.959,252.152 141.5,254C 141.167,254.333 140.833,254.667 140.5,255C 136.556,254.521 132.556,254.021 128.5,253.5C 128.5,252.5 128.5,251.5 128.5,250.5C 129.5,250.5 130.5,250.5 131.5,250.5C 132.783,243.421 134.45,236.421 136.5,229.5C 135.733,227.643 134.733,225.976 133.5,224.5 Z"/></g>
<g><path style="opacity:1" fill="#ff3224" d="M 364.5,225.5 C 366.645,225.738 368.312,226.738 369.5,228.5C 367.51,229.498 365.51,230.498 363.5,231.5C 362.23,229.243 362.564,227.243 364.5,225.5 Z"/></g>
<g><path style="opacity:1" fill="#ff190e" d="M 142.5,230.5 C 146.923,229.425 148.923,231.092 148.5,235.5C 148.654,239.527 146.987,242.527 143.5,244.5C 141.545,243.72 140.545,242.22 140.5,240C 141.068,236.8 141.735,233.633 142.5,230.5 Z"/></g>
<g><path style="opacity:1" fill="#f7e8db" d="M 162.5,230.5 C 165.85,230.335 169.183,230.502 172.5,231C 174.019,232.351 175.352,233.851 176.5,235.5C 174.999,236.752 173.332,237.752 171.5,238.5C 170.352,236.851 169.019,235.351 167.5,234C 166.551,233.383 165.718,233.549 165,234.5C 160.749,243.71 163.582,248.71 173.5,249.5C 170.721,250.646 168.054,251.979 165.5,253.5C 171.276,258.645 170.109,261.645 162,262.5C 161.167,262.167 160.333,261.833 159.5,261.5C 165.448,259.492 165.782,256.992 160.5,254C 161.357,253.311 162.023,252.478 162.5,251.5C 154.599,244.546 154.599,237.546 162.5,230.5 Z"/></g>
<g><path style="opacity:1" fill="#f8e8db" d="M 235.5,229.5 C 239.884,229.174 244.217,229.508 248.5,230.5C 248.167,231.5 247.5,232.167 246.5,232.5C 245.503,239.803 245.169,247.137 245.5,254.5C 248.187,254.664 250.854,254.497 253.5,254C 253.471,249.891 255.471,248.057 259.5,248.5C 259.5,251.833 259.5,255.167 259.5,258.5C 251.14,258.831 242.807,258.498 234.5,257.5C 235.328,256.585 236.328,255.919 237.5,255.5C 238.497,247.862 238.831,240.196 238.5,232.5C 237.5,232.5 236.5,232.5 235.5,232.5C 235.5,231.5 235.5,230.5 235.5,229.5 Z"/></g>
<g><path style="opacity:1" fill="#f7ecdf" d="M 318.5,231.5 C 322.306,231.02 325.639,232.02 328.5,234.5C 327.5,236.167 326.167,237.5 324.5,238.5C 322.572,236.422 320.405,235.755 318,236.5C 316.631,241.437 317.797,245.604 321.5,249C 324.257,249.782 326.757,249.282 329,247.5C 329.5,248 330,248.5 330.5,249C 325.418,254.323 319.918,254.823 314,250.5C 309.48,242.462 310.98,236.129 318.5,231.5 Z"/></g>
<g><path style="opacity:1" fill="#0f0f0f" d="M 31.5,232.5 C 45.4501,231.285 51.7835,237.452 50.5,251C 48.2462,252.15 45.9129,252.484 43.5,252C 41.9828,249.239 42.8162,247.406 46,246.5C 46.9439,243.653 46.4439,241.153 44.5,239C 37.4515,237.114 31.6182,238.947 27,244.5C 25.4191,250.062 26.9191,254.562 31.5,258C 30.8921,258.87 30.0588,259.37 29,259.5C 20.0875,253.771 18.4208,246.438 24,237.5C 26.4795,235.686 28.9795,234.019 31.5,232.5 Z"/></g>
<g><path style="opacity:1" fill="#f7ecdf" d="M 181.5,233.5 C 185.182,233.335 188.848,233.501 192.5,234C 193.416,234.374 194.25,234.874 195,235.5C 195.315,240.838 195.148,246.172 194.5,251.5C 195.5,251.5 196.5,251.5 197.5,251.5C 197.5,252.5 197.5,253.5 197.5,254.5C 193.739,256.434 190.573,255.767 188,252.5C 180.659,256.604 176.992,254.604 177,246.5C 177.5,246 178,245.5 178.5,245C 182.152,244.501 185.818,244.335 189.5,244.5C 189.768,241.881 189.435,239.381 188.5,237C 185.074,235.762 183.408,236.929 183.5,240.5C 182.167,240.5 180.833,240.5 179.5,240.5C 179.185,237.789 179.852,235.456 181.5,233.5 Z"/></g>
<g><path style="opacity:1" fill="#0b0b0b" d="M 461.5,233.5 C 464.797,233.632 466.463,235.298 466.5,238.5C 462.488,237.887 460.488,239.554 460.5,243.5C 461.873,243.657 463.207,243.49 464.5,243C 467.188,240.306 470.355,238.473 474,237.5C 477.634,238.135 479.468,240.302 479.5,244C 479.176,248.483 477.176,251.983 473.5,254.5C 472.167,253.833 471.167,252.833 470.5,251.5C 472.316,249.183 474.316,247.016 476.5,245C 475.407,243.635 474.074,243.301 472.5,244C 469.424,248.118 465.424,249.784 460.5,249C 456.47,243.638 456.804,238.471 461.5,233.5 Z"/></g>
<g><path style="opacity:1" fill="#f6efe2" d="M 206.5,235.5 C 217.983,234.822 222.483,240.155 220,251.5C 217.081,257.025 212.581,258.858 206.5,257C 204,255.833 202.167,254 201,251.5C 199.016,244.66 200.85,239.327 206.5,235.5 Z"/></g>
<g><path style="opacity:1" fill="#f7ecdf" d="M 298.5,234.5 C 301.652,233.959 304.152,234.959 306,237.5C 306.503,242.19 307.17,246.857 308,251.5C 309.706,252.308 310.539,253.641 310.5,255.5C 306.818,255.665 303.152,255.499 299.5,255C 300.98,253.701 301.646,252.034 301.5,250C 301.054,246.825 300.554,243.658 300,240.5C 296.534,238.739 294.367,239.739 293.5,243.5C 294.21,246.799 294.543,250.133 294.5,253.5C 295.5,253.5 296.5,253.5 297.5,253.5C 297.5,254.5 297.5,255.5 297.5,256.5C 293.318,256.67 289.318,256.67 285.5,256.5C 286.751,255.369 287.751,254.036 288.5,252.5C 287.625,248.213 287.292,243.879 287.5,239.5C 286.167,239.5 284.833,239.5 283.5,239.5C 283.5,238.5 283.5,237.5 283.5,236.5C 285.342,236.277 287.175,235.943 289,235.5C 291.163,235.495 292.663,236.495 293.5,238.5C 295.21,237.113 296.877,235.779 298.5,234.5 Z"/></g>
<g><path style="opacity:1" fill="#f7ecdf" d="M 270.5,248.5 C 271.5,248.5 272.5,248.5 273.5,248.5C 273.795,246.265 273.461,244.265 272.5,242.5C 272.001,239.611 270.501,238.944 268,240.5C 268.218,244.638 266.552,245.972 263,244.5C 261.86,241.472 262.694,239.305 265.5,238C 270.395,235.606 274.895,236.106 279,239.5C 279.499,244.155 279.666,248.821 279.5,253.5C 280.978,253.238 282.311,253.571 283.5,254.5C 280.636,259.084 277.469,259.417 274,255.5C 269.925,259.41 265.925,259.41 262,255.5C 261.83,249.851 264.663,247.518 270.5,248.5 Z"/></g>
<g><path style="opacity:1" fill="#ff2214" d="M 208.5,239.5 C 210.766,239.141 212.599,239.808 214,241.5C 214.667,244.833 214.667,248.167 214,251.5C 211.667,255.5 209.333,255.5 207,251.5C 205.994,247.198 206.494,243.198 208.5,239.5 Z"/></g>
<g><path style="opacity:1" fill="#edaf45" d="M 411.5,229.5 C 413.275,233.575 414.609,237.909 415.5,242.5C 415.457,243.416 415.124,244.083 414.5,244.5C 413.343,239.536 412.343,234.536 411.5,229.5 Z"/></g>
<g><path style="opacity:1" fill="#fb7069" d="M 272.5,242.5 C 273.461,244.265 273.795,246.265 273.5,248.5C 272.5,248.5 271.5,248.5 270.5,248.5C 272.075,246.886 272.741,244.886 272.5,242.5 Z"/></g>
<g><path style="opacity:1" fill="#ff271b" d="M 183.5,247.5 C 185.167,247.5 186.833,247.5 188.5,247.5C 188.5,248.5 188.5,249.5 188.5,250.5C 186.396,250.799 184.396,250.466 182.5,249.5C 182.863,248.817 183.196,248.15 183.5,247.5 Z"/></g>
<g><path style="opacity:1" fill="#101010" d="M 53.5,249.5 C 58.5076,251.161 59.8409,254.161 57.5,258.5C 54.5,260.333 51.5,262.167 48.5,264C 50.96,265.458 53.1266,267.291 55,269.5C 55.8756,272.917 54.709,275.417 51.5,277C 48.8333,278.333 46.1667,279.667 43.5,281C 42.1341,282.6 41.1341,284.433 40.5,286.5C 37.3522,283.227 35.6855,279.56 35.5,275.5C 36.4776,275.977 37.3109,276.643 38,277.5C 40.9212,275.288 44.0879,273.455 47.5,272C 50.3408,267.486 49.0075,265.486 43.5,266C 41.3295,267.586 38.9962,268.92 36.5,270C 35.9505,271.845 34.9505,273.345 33.5,274.5C 31.4479,271.564 29.7812,268.397 28.5,265C 29.6479,263.274 30.8145,263.441 32,265.5C 39,261.5 46,257.5 53,253.5C 53.49,252.207 53.6567,250.873 53.5,249.5 Z"/></g>
<g><path style="opacity:1" fill="#fe241a" d="M 269.5,250.5 C 270.833,250.5 272.167,250.5 273.5,250.5C 273.5,251.833 273.5,253.167 273.5,254.5C 271.833,254.5 270.167,254.5 268.5,254.5C 268.433,253.041 268.766,251.708 269.5,250.5 Z"/></g>
<g><path style="opacity:1" fill="#111111" d="M 455.5,251.5 C 459.07,250.893 461.737,252.06 463.5,255C 461.97,258.561 460.303,262.061 458.5,265.5C 464.964,267.055 468.297,264.388 468.5,257.5C 469.5,257.5 470.5,257.5 471.5,257.5C 472.339,267.826 467.672,272.659 457.5,272C 450.432,268.467 448.265,262.967 451,255.5C 452.397,253.93 453.897,252.596 455.5,251.5 Z"/></g>
<g><path style="opacity:1" fill="#f1f1f1" d="M 454.5,257.5 C 455.978,257.238 457.311,257.571 458.5,258.5C 455.097,265.127 453.764,264.794 454.5,257.5 Z"/></g>
<g><path style="opacity:1" fill="#e9a628" d="M 202.5,331.5 C 202.5,329.833 202.5,328.167 202.5,326.5C 252.479,345.666 296.312,336.333 334,298.5C 342.618,288.269 349.451,276.935 354.5,264.5C 356.042,263.699 357.708,263.366 359.5,263.5C 354.495,278.511 346.662,291.845 336,303.5C 297.402,340.575 252.902,349.908 202.5,331.5 Z"/></g>
<g><path style="opacity:1" fill="#e9a729" d="M 144.5,264.5 C 152.147,283.806 164.147,299.806 180.5,312.5C 180.842,313.338 181.508,313.672 182.5,313.5C 182.448,315.903 182.781,318.236 183.5,320.5C 162.964,306.953 148.297,288.62 139.5,265.5C 141.045,264.548 142.712,264.215 144.5,264.5 Z"/></g>
<g><path style="opacity:1" fill="#fffdfd" d="M 354.5,264.5 C 349.451,276.935 342.618,288.269 334,298.5C 296.312,336.333 252.479,345.666 202.5,326.5C 201,314.153 201.334,301.819 203.5,289.5C 204.488,288.205 205.488,286.872 206.5,285.5C 207.931,285.881 208.764,286.881 209,288.5C 209.979,297.141 210.646,305.808 211,314.5C 213.304,319.729 215.304,319.396 217,313.5C 218.226,303.203 218.726,292.87 218.5,282.5C 221.334,280.498 223.667,277.998 225.5,275C 268.882,275.908 311.882,272.408 354.5,264.5 Z"/></g>
<g><path style="opacity:1" fill="#fffdfc" d="M 144.5,264.5 C 159.335,267.806 174.335,270.139 189.5,271.5C 186.228,280.59 183.894,289.923 182.5,299.5C 181.833,303.833 181.167,308.167 180.5,312.5C 164.147,299.806 152.147,283.806 144.5,264.5 Z"/></g>
<g><path style="opacity:1" fill="#111111" d="M 446.5,266.5 C 450.327,272.198 454.494,277.865 459,283.5C 459.855,286.819 458.688,289.152 455.5,290.5C 448.474,288.36 441.474,287.026 434.5,286.5C 436.5,283.5 438.5,280.5 440.5,277.5C 441.262,278.628 441.929,279.795 442.5,281C 446.659,281.84 450.659,282.84 454.5,284C 451.833,281.333 449.167,278.667 446.5,276C 445.451,275.508 444.451,275.674 443.5,276.5C 442.692,276.192 442.025,275.692 441.5,275C 443.568,272.358 445.235,269.525 446.5,266.5 Z"/></g>
<g><path style="opacity:1" fill="#ffa806" d="M 189.5,271.5 C 196.46,272.463 203.46,273.296 210.5,274C 208.269,279.231 205.603,284.231 202.5,289C 202.728,289.399 203.062,289.565 203.5,289.5C 201.334,301.819 201,314.153 202.5,326.5C 202.5,328.167 202.5,329.833 202.5,331.5C 201.527,333.948 201.194,336.615 201.5,339.5C 200.776,344.726 199.276,349.726 197,354.5C 196.282,355.451 195.449,355.617 194.5,355C 191.136,347.409 188.47,339.576 186.5,331.5C 185.371,327.848 184.371,324.182 183.5,320.5C 182.781,318.236 182.448,315.903 182.5,313.5C 182.5,308.833 182.5,304.167 182.5,299.5C 183.894,289.923 186.228,280.59 189.5,271.5 Z"/></g>
<g><path style="opacity:1" fill="#ffa90c" d="M 218.5,282.5 C 218.726,292.87 218.226,303.203 217,313.5C 215.304,319.396 213.304,319.729 211,314.5C 210.646,305.808 209.979,297.141 209,288.5C 208.764,286.881 207.931,285.881 206.5,285.5C 209.266,281.967 210.933,277.967 211.5,273.5C 213.861,273.674 216.194,274.007 218.5,274.5C 218.5,277.167 218.5,279.833 218.5,282.5 Z"/></g>
<g><path style="opacity:1" fill="#0c0c0c" d="M 57.5,279.5 C 71.0847,287.355 70.7513,294.688 56.5,301.5C 55.4104,302.391 55.4104,303.391 56.5,304.5C 51.805,305.65 49.6383,303.65 50,298.5C 43.8071,296.304 42.3071,292.471 45.5,287C 47.5,286.333 49.5,286.333 51.5,287C 53.4521,289.074 55.2854,291.241 57,293.5C 57.9025,292.299 59.0692,291.465 60.5,291C 63.1816,288.683 63.015,286.516 60,284.5C 57.5809,287.3 55.4142,287.133 53.5,284C 55.0414,282.629 56.3747,281.129 57.5,279.5 Z"/></g>
<g><path style="opacity:1" fill="#1a1a1a" d="M 65.5,279.5 C 68.8599,279.616 72.1933,279.949 75.5,280.5C 75.5,282.167 75.5,283.833 75.5,285.5C 72.5131,285.002 69.5131,284.502 66.5,284C 65.6198,282.644 65.2865,281.144 65.5,279.5 Z"/></g>
<g><path style="opacity:1" fill="#0f0f0f" d="M 431.5,289.5 C 434.187,289.336 436.854,289.503 439.5,290C 441.363,291.418 441.863,293.251 441,295.5C 438.715,297.907 436.549,300.407 434.5,303C 440.603,305.949 444.269,304.115 445.5,297.5C 446.675,297.281 447.675,297.614 448.5,298.5C 446.846,309.827 440.846,312.994 430.5,308C 424.849,301.439 425.182,295.272 431.5,289.5 Z"/></g>
<g><path style="opacity:1" fill="#dfdfdf" d="M 49.5,291.5 C 52.1142,291.277 53.7809,292.444 54.5,295C 51.957,297.102 49.957,296.602 48.5,293.5C 48.8627,292.817 49.1961,292.15 49.5,291.5 Z"/></g>
<g><path style="opacity:1" fill="#ff3700" d="M 189.5,282.5 C 190.124,282.917 190.457,283.584 190.5,284.5C 189.011,289.76 188.511,295.094 189,300.5C 189.576,303.124 190.91,303.791 193,302.5C 193.241,299.711 193.908,297.044 195,294.5C 196.338,299.05 195.171,302.717 191.5,305.5C 188.163,303.66 186.496,300.827 186.5,297C 187.183,292.082 188.183,287.249 189.5,282.5 Z"/></g>
<g><path style="opacity:1" fill="#efefef" d="M 431.5,294.5 C 433.199,294.34 434.866,294.506 436.5,295C 435.36,296.973 434.027,298.807 432.5,300.5C 430.261,298.867 429.928,296.867 431.5,294.5 Z"/></g>
<g><path style="opacity:1" fill="#0f0f0f" d="M 416.5,297.5 C 417.309,299.013 417.476,300.68 417,302.5C 423.423,307.785 429.256,313.618 434.5,320C 433.555,322.614 431.722,324.114 429,324.5C 421.911,322.547 414.744,321.38 407.5,321C 411.466,323.964 415.133,327.297 418.5,331C 420.047,331.333 421.38,330.833 422.5,329.5C 423.308,329.808 423.975,330.308 424.5,331C 421.667,333.833 418.833,336.667 416,339.5C 415.667,337.833 415.333,336.167 415,334.5C 410.167,329.667 405.333,324.833 400.5,320C 398.775,320.409 397.108,320.242 395.5,319.5C 397.534,316.631 400.034,314.298 403,312.5C 410.04,314.709 417.206,315.876 424.5,316C 421.167,312.667 417.833,309.333 414.5,306C 412.633,305.289 411.133,305.789 410,307.5C 409.5,307 409,306.5 408.5,306C 411.371,303.297 414.038,300.464 416.5,297.5 Z"/></g>
<g><path style="opacity:1" fill="#111111" d="M 66.5,299.5 C 75.851,298.367 80.6844,302.367 81,311.5C 79.2933,312.138 77.46,312.138 75.5,311.5C 77.0898,303.897 74.7564,302.064 68.5,306C 63.0181,310.414 63.1848,314.581 69,318.5C 69.6667,319.5 69.6667,320.5 69,321.5C 61.1331,319.434 58.1331,314.434 60,306.5C 61.6941,303.642 63.8607,301.309 66.5,299.5 Z"/></g>
<g><path style="opacity:1" fill="#ffdc9b" d="M 182.5,299.5 C 182.5,304.167 182.5,308.833 182.5,313.5C 181.508,313.672 180.842,313.338 180.5,312.5C 181.167,308.167 181.833,303.833 182.5,299.5 Z"/></g>
<g><path style="opacity:1" fill="#0f0f0f" d="M 82.5,313.5 C 88.8916,314.192 93.225,317.525 95.5,323.5C 92.9251,327.582 89.7585,331.249 86,334.5C 85.4926,335.996 85.9926,337.163 87.5,338C 85.2533,339.386 82.9199,339.219 80.5,337.5C 80.2226,333.108 77.8893,330.941 73.5,331C 70.1641,326.154 71.1641,322.654 76.5,320.5C 79.4241,322.082 82.0908,324.082 84.5,326.5C 86.1487,325.352 87.6487,324.019 89,322.5C 89.0172,317.521 87.0172,316.521 83,319.5C 79.897,317.888 79.7304,315.888 82.5,313.5 Z"/></g>
<g><path style="opacity:1" fill="#dbdbdb" d="M 77.5,325.5 C 80.5242,325.364 82.0242,326.698 82,329.5C 79.7607,330.869 77.9274,330.369 76.5,328C 77.2524,327.329 77.5858,326.496 77.5,325.5 Z"/></g>
<g><path style="opacity:1" fill="#0e0e0e" d="M 98.5,326.5 C 101.343,327.172 103.843,328.505 106,330.5C 106.711,332.367 106.211,333.867 104.5,335C 115.568,334.828 116.901,337.995 108.5,344.5C 106.31,343.252 105.977,341.586 107.5,339.5C 105.579,338.359 103.579,338.192 101.5,339C 99.9544,341.257 98.2877,343.424 96.5,345.5C 98.3329,346.968 98.6662,348.635 97.5,350.5C 93.8536,348.183 90.5203,345.516 87.5,342.5C 92.3911,340.446 96.2245,337.113 99,332.5C 99.1805,330.512 99.0138,328.512 98.5,326.5 Z"/></g>
<g><path style="opacity:1" fill="#121212" d="M 387.5,334.5 C 390.468,334.626 392.468,336.126 393.5,339C 392.646,340.022 391.646,340.855 390.5,341.5C 387.09,338.414 385.09,339.08 384.5,343.5C 389.179,343.334 393.845,343.501 398.5,344C 401.561,348.569 400.894,352.569 396.5,356C 394.091,357.707 391.425,358.54 388.5,358.5C 388.579,357.07 388.246,355.736 387.5,354.5C 389.959,353.674 392.459,353.007 395,352.5C 396.257,352.15 396.591,351.483 396,350.5C 391.586,349.697 387.086,349.197 382.5,349C 379.209,346.668 378.709,343.835 381,340.5C 383.063,338.266 385.229,336.266 387.5,334.5 Z"/></g>
<g><path style="opacity:1" fill="#ff3c00" d="M 196.5,317.5 C 199.076,323.954 198.909,330.621 196,337.5C 194.951,338.517 193.784,338.684 192.5,338C 194.993,336.675 196.16,334.509 196,331.5C 196.499,326.845 196.666,322.179 196.5,317.5 Z"/></g>
<g><path style="opacity:1" fill="#0f0f0f" d="M 115.5,341.5 C 119.313,342.16 122.979,343.326 126.5,345C 128.01,346.351 129.01,348.018 129.5,350C 127.246,354.588 124.579,358.921 121.5,363C 122.357,363.689 123.023,364.522 123.5,365.5C 118.904,367.65 116.237,366.317 115.5,361.5C 107.196,361.722 104.863,358.222 108.5,351C 112.588,350.289 116.088,351.456 119,354.5C 122.865,351.517 123.198,348.517 120,345.5C 118.395,346.101 117.062,347.101 116,348.5C 112.932,346.411 112.766,344.077 115.5,341.5 Z"/></g>
<g><path style="opacity:1" fill="#0f0f0f" d="M 368.5,347.5 C 370.527,347.338 372.527,347.505 374.5,348C 377.205,351.242 379.539,354.742 381.5,358.5C 382.651,359.731 383.817,359.731 385,358.5C 385.5,359 386,359.5 386.5,360C 385.5,361.667 384.5,363.333 383.5,365C 381.888,365.72 380.388,365.554 379,364.5C 377.708,366.249 376.542,368.082 375.5,370C 367.889,372.89 365.222,370.39 367.5,362.5C 369.71,361.234 371.71,359.734 373.5,358C 372.683,356.51 371.85,355.01 371,353.5C 369.612,352.446 368.112,352.28 366.5,353C 365.848,355.09 365.681,357.257 366,359.5C 362.759,360.964 360.926,359.798 360.5,356C 362.682,352.653 365.349,349.819 368.5,347.5 Z"/></g>
<g><path style="opacity:1" fill="#0f0f0f" d="M 157.5,352.5 C 161.376,352.438 164.376,353.938 166.5,357C 162.713,364.742 159.046,372.576 155.5,380.5C 156.853,381.524 157.52,382.857 157.5,384.5C 152.825,385.661 150.159,383.994 149.5,379.5C 145.103,381.646 141.603,380.646 139,376.5C 137.248,362.914 142.915,357.914 156,361.5C 157.649,360.214 158.815,358.547 159.5,356.5C 158.147,355.476 157.48,354.143 157.5,352.5 Z"/></g>
<g><path style="opacity:1" fill="#101010" d="M 341.5,353.5 C 355.461,352.295 361.961,358.628 361,372.5C 359.623,374.754 358.123,376.92 356.5,379C 351.394,381.636 346.228,384.136 341,386.5C 340.5,386.167 340,385.833 339.5,385.5C 340.167,384.5 340.833,383.5 341.5,382.5C 338.773,376.046 335.773,369.712 332.5,363.5C 331.167,362.833 329.833,362.167 328.5,361.5C 332.694,358.571 337.027,355.905 341.5,353.5 Z"/></g>
<g><path style="opacity:1" fill="#d5d5d5" d="M 112.5,354.5 C 115.757,354.174 117.257,355.507 117,358.5C 115.493,359.535 113.993,359.368 112.5,358C 111.316,356.855 111.316,355.688 112.5,354.5 Z"/></g>
<g><path style="opacity:1" fill="#f7f7f7" d="M 341.5,357.5 C 349.87,357.373 354.203,361.54 354.5,370C 355.041,376.301 352.375,378.801 346.5,377.5C 343.833,371.833 341.167,366.167 338.5,360.5C 339.77,359.712 340.77,358.712 341.5,357.5 Z"/></g>
<g><path style="opacity:1" fill="#e8e8e8" d="M 374.5,360.5 C 377.205,362.777 376.872,364.777 373.5,366.5C 372.5,366.167 371.833,365.5 371.5,364.5C 372.524,363.148 373.524,361.815 374.5,360.5 Z"/></g>
<g><path style="opacity:1" fill="#f3f3f3" d="M 149.5,363.5 C 152.127,363.293 153.793,364.46 154.5,367C 152.73,370.366 151.397,373.866 150.5,377.5C 146.749,377.582 144.749,375.749 144.5,372C 145.137,368.537 146.803,365.704 149.5,363.5 Z"/></g>
<g><path style="opacity:1" fill="#0b0b0b" d="M 167.5,369.5 C 179.864,368.357 184.364,373.69 181,385.5C 176.755,392.017 171.255,393.183 164.5,389C 159.821,381.595 160.821,375.095 167.5,369.5 Z"/></g>
<g><path style="opacity:1" fill="#0f0f0f" d="M 197.5,369.5 C 201.897,370.178 206.231,371.178 210.5,372.5C 209.372,373.262 208.205,373.929 207,374.5C 205.018,381.04 204.351,387.707 205,394.5C 207.823,397.571 211.156,398.238 215,396.5C 217.569,389.759 219.069,382.759 219.5,375.5C 215.578,374.883 215.578,374.216 219.5,373.5C 222.576,373.846 225.576,374.512 228.5,375.5C 227.009,376.244 225.509,376.91 224,377.5C 223.547,384.826 221.88,391.826 219,398.5C 209.855,403.901 202.855,401.901 198,392.5C 197.697,386.037 198.53,379.704 200.5,373.5C 198.712,372.717 197.712,371.384 197.5,369.5 Z"/></g>
<g><path style="opacity:1" fill="#111111" d="M 232.5,371.5 C 238.874,372.771 239.541,375.104 234.5,378.5C 230.148,377.119 229.482,374.786 232.5,371.5 Z"/></g>
<g><path style="opacity:1" fill="#070707" d="M 243.5,371.5 C 245.591,371.318 247.591,371.652 249.5,372.5C 250.332,381.816 250.832,391.149 251,400.5C 251.925,401.047 252.758,401.713 253.5,402.5C 249.205,403.661 244.871,403.828 240.5,403C 241.579,402.044 242.745,401.211 244,400.5C 244.5,392.173 244.666,383.84 244.5,375.5C 243.167,375.5 241.833,375.5 240.5,375.5C 240.5,374.5 240.5,373.5 240.5,372.5C 241.791,372.737 242.791,372.404 243.5,371.5 Z"/></g>
<g><path style="opacity:1" fill="#f2f2f2" d="M 171.5,372.5 C 174.822,372.489 176.489,374.155 176.5,377.5C 176.426,381.961 174.592,385.294 171,387.5C 168.052,387.251 166.886,385.584 167.5,382.5C 167.737,378.698 169.07,375.365 171.5,372.5 Z"/></g>
<g><path style="opacity:1" fill="#111111" d="M 310.5,373.5 C 313.505,373.253 316.005,374.253 318,376.5C 319.156,380.123 320.156,383.789 321,387.5C 322.456,388.92 323.956,390.253 325.5,391.5C 322.042,392.908 318.542,394.241 315,395.5C 314.5,395.167 314,394.833 313.5,394.5C 314.383,393.452 315.05,392.285 315.5,391C 314.589,387.855 313.755,384.688 313,381.5C 310.35,378.783 307.85,378.949 305.5,382C 306.888,385.717 307.888,389.55 308.5,393.5C 309.5,393.5 310.5,393.5 311.5,393.5C 311.5,394.5 311.5,395.5 311.5,396.5C 308.26,396.768 305.094,397.434 302,398.5C 301.5,398.167 301,397.833 300.5,397.5C 301.383,396.452 302.05,395.285 302.5,394C 301.261,389.877 300.261,385.71 299.5,381.5C 298.167,381.5 296.833,381.5 295.5,381.5C 296.178,378.465 298.178,376.799 301.5,376.5C 303.425,376.59 304.592,377.59 305,379.5C 307.04,377.63 308.873,375.63 310.5,373.5 Z"/></g>
<g><path style="opacity:1" fill="#0e0e0e" d="M 281.5,379.5 C 293.114,379.364 297.614,385.031 295,396.5C 291.702,401.22 287.202,402.72 281.5,401C 272.222,393.798 272.222,386.631 281.5,379.5 Z"/></g>
<g><path style="opacity:1" fill="#131313" d="M 232.5,403.5 C 230.5,402.833 228.5,402.167 226.5,401.5C 227.209,400.596 228.209,400.263 229.5,400.5C 229.223,395.767 229.557,391.1 230.5,386.5C 229.675,385.614 228.675,385.281 227.5,385.5C 227.33,384.178 227.663,383.011 228.5,382C 231.099,381.231 233.599,381.398 236,382.5C 236.703,387.695 236.536,392.861 235.5,398C 235.969,399.887 236.969,401.387 238.5,402.5C 236.604,403.466 234.604,403.799 232.5,403.5 Z"/></g>
<g><path style="opacity:1" fill="#111111" d="M 261.5,381.5 C 264.881,381.46 268.214,381.793 271.5,382.5C 271.5,384.5 271.5,386.5 271.5,388.5C 270.022,388.762 268.689,388.429 267.5,387.5C 265.636,383.707 263.636,383.541 261.5,387C 265.521,389.472 269.354,392.305 273,395.5C 273.059,401.604 269.892,404.604 263.5,404.5C 257.225,404.933 255.559,402.6 258.5,397.5C 261.234,399.371 264.234,400.371 267.5,400.5C 267.67,399.178 267.337,398.011 266.5,397C 263.088,395.545 259.921,393.712 257,391.5C 255.571,386.783 257.071,383.45 261.5,381.5 Z"/></g>
<g><path style="opacity:1" fill="#f3f3f3" d="M 282.5,383.5 C 285.808,382.974 287.974,384.307 289,387.5C 289.789,391.091 289.622,394.591 288.5,398C 286.299,398.825 284.466,398.325 283,396.5C 281.312,392.176 281.146,387.842 282.5,383.5 Z"/></g>
<g><path style="opacity:1" fill="#6d6d6d" d="M 226.5,401.5 C 228.5,402.167 230.5,402.833 232.5,403.5C 230.076,403.808 227.743,403.474 225.5,402.5C 225.624,401.893 225.957,401.56 226.5,401.5 Z"/></g>
</svg>
